<svg width="13" height="13" viewBox="0 0 13 13" fill="none" xmlns="http://www.w3.org/2000/svg">
<path d="M10.5755 7.97396H10.5798C10.9287 7.97396 11.2705 7.942 11.6014 7.8808L11.5673 7.88621C10.9465 10.119 8.93154 11.731 6.54008 11.731H6.50867H6.51029C3.61617 11.7277 1.27075 9.3823 1.26804 6.48817V6.48763C1.27483 5.34897 1.64907 4.24294 2.33509 3.33411C3.0211 2.42528 3.98222 1.76223 5.07542 1.44363L5.11279 1.43442C5.05359 1.75949 5.02422 2.0893 5.02504 2.41971V2.4235C5.02775 5.48825 7.51129 7.9718 10.5755 7.9745H10.576L10.5755 7.97396ZM6.50325 0.254671C6.43873 0.167605 6.35282 0.098671 6.25385 0.0545445C6.15487 0.010418 6.04618 -0.00740674 5.93829 0.00279608H5.941C2.60704 0.322921 0.0184167 3.10059 0 6.48709V6.48871C0.00433333 10.0827 2.91687 12.9952 6.51029 13.0001H6.54333C9.92496 13.0001 12.7005 10.4077 12.9919 7.10188L12.9935 7.0775C13.0028 6.97462 12.9868 6.87102 12.9469 6.77575C12.9069 6.68048 12.8443 6.59643 12.7644 6.53096L12.7633 6.52988C12.6826 6.46352 12.5868 6.41824 12.4843 6.3981C12.3818 6.37796 12.2759 6.3836 12.1761 6.4145L12.1805 6.41342L11.8966 6.49792C11.4709 6.6375 11.0256 6.70791 10.5777 6.70646H10.5739C9.43893 6.70517 8.35085 6.25375 7.54832 5.45122C6.7458 4.6487 6.29437 3.56061 6.29308 2.42567V2.41592C6.29308 1.858 6.40033 1.325 6.59533 0.836963L6.58504 0.865671C6.62488 0.764677 6.63808 0.655136 6.62338 0.547568C6.60868 0.440001 6.56656 0.33802 6.50108 0.251421L6.50217 0.253046L6.50325 0.254671Z" fill="#404040"/>
</svg>
