<svg width="145" height="31" viewBox="0 0 145 31" fill="none" xmlns="http://www.w3.org/2000/svg">
<path d="M0.113636 24V6.54545H4.10227V9.45455H4.28409C4.60227 8.44697 5.14773 7.67045 5.92045 7.125C6.70076 6.57197 7.59091 6.29545 8.59091 6.29545C8.81818 6.29545 9.07197 6.30682 9.35227 6.32954C9.64015 6.3447 9.87879 6.37121 10.0682 6.40909V10.1932C9.89394 10.1326 9.61742 10.0795 9.23864 10.0341C8.86742 9.98106 8.50758 9.95455 8.15909 9.95455C7.40909 9.95455 6.73485 10.1174 6.13636 10.4432C5.54545 10.7614 5.07955 11.2045 4.73864 11.7727C4.39773 12.3409 4.22727 12.9962 4.22727 13.7386V24H0.113636ZM19.696 24.3409C17.9915 24.3409 16.5142 23.9659 15.2642 23.2159C14.0142 22.4659 13.0445 21.4167 12.3551 20.0682C11.6733 18.7197 11.3324 17.1439 11.3324 15.3409C11.3324 13.5379 11.6733 11.9583 12.3551 10.6023C13.0445 9.24621 14.0142 8.19318 15.2642 7.44318C16.5142 6.69318 17.9915 6.31818 19.696 6.31818C21.4006 6.31818 22.8778 6.69318 24.1278 7.44318C25.3778 8.19318 26.3438 9.24621 27.0256 10.6023C27.715 11.9583 28.0597 13.5379 28.0597 15.3409C28.0597 17.1439 27.715 18.7197 27.0256 20.0682C26.3438 21.4167 25.3778 22.4659 24.1278 23.2159C22.8778 23.9659 21.4006 24.3409 19.696 24.3409ZM19.7188 21.0455C20.643 21.0455 21.4157 20.7917 22.0369 20.2841C22.6581 19.7689 23.1203 19.0795 23.4233 18.2159C23.7339 17.3523 23.8892 16.3902 23.8892 15.3295C23.8892 14.2614 23.7339 13.2955 23.4233 12.4318C23.1203 11.5606 22.6581 10.8674 22.0369 10.3523C21.4157 9.83712 20.643 9.57955 19.7188 9.57955C18.7718 9.57955 17.9839 9.83712 17.3551 10.3523C16.7339 10.8674 16.268 11.5606 15.9574 12.4318C15.6544 13.2955 15.5028 14.2614 15.5028 15.3295C15.5028 16.3902 15.6544 17.3523 15.9574 18.2159C16.268 19.0795 16.7339 19.7689 17.3551 20.2841C17.9839 20.7917 18.7718 21.0455 19.7188 21.0455ZM39.142 30.9091C37.6648 30.9091 36.3958 30.7083 35.3352 30.3068C34.2746 29.9129 33.4223 29.3826 32.7784 28.7159C32.1345 28.0492 31.6875 27.3106 31.4375 26.5L35.142 25.6023C35.3087 25.9432 35.5511 26.2803 35.8693 26.6136C36.1875 26.9545 36.6155 27.2348 37.1534 27.4545C37.6989 27.6818 38.3845 27.7955 39.2102 27.7955C40.3769 27.7955 41.3428 27.5114 42.108 26.9432C42.8731 26.3826 43.2557 25.4583 43.2557 24.1705V20.8636H43.0511C42.839 21.2879 42.5284 21.7235 42.1193 22.1705C41.7178 22.6174 41.1837 22.9924 40.517 23.2955C39.858 23.5985 39.0284 23.75 38.0284 23.75C36.6875 23.75 35.4716 23.4356 34.3807 22.8068C33.2973 22.1705 32.4337 21.2235 31.7898 19.9659C31.1534 18.7008 30.8352 17.1174 30.8352 15.2159C30.8352 13.2992 31.1534 11.6818 31.7898 10.3636C32.4337 9.03788 33.3011 8.03409 34.392 7.35227C35.483 6.66288 36.6989 6.31818 38.0398 6.31818C39.0625 6.31818 39.9034 6.49242 40.5625 6.84091C41.2292 7.18182 41.7595 7.5947 42.1534 8.07955C42.5473 8.55682 42.8466 9.00758 43.0511 9.43182H43.2784V6.54545H47.3352V24.2841C47.3352 25.7765 46.9792 27.0114 46.267 27.9886C45.5549 28.9659 44.5814 29.697 43.3466 30.1818C42.1117 30.6667 40.7102 30.9091 39.142 30.9091ZM39.1761 20.5227C40.0473 20.5227 40.7898 20.3106 41.4034 19.8864C42.017 19.4621 42.483 18.8523 42.8011 18.0568C43.1193 17.2614 43.2784 16.3068 43.2784 15.1932C43.2784 14.0947 43.1193 13.1326 42.8011 12.3068C42.4905 11.4811 42.0284 10.8409 41.4148 10.3864C40.8087 9.92424 40.0625 9.69318 39.1761 9.69318C38.2595 9.69318 37.4943 9.93182 36.8807 10.4091C36.267 10.8864 35.8049 11.5417 35.4943 12.375C35.1837 13.2008 35.0284 14.1402 35.0284 15.1932C35.0284 16.2614 35.1837 17.197 35.4943 18C35.8125 18.7955 36.2784 19.4167 36.892 19.8636C37.5133 20.303 38.2746 20.5227 39.1761 20.5227ZM59.2784 24.3409C57.5284 24.3409 56.017 23.9773 54.7443 23.25C53.4792 22.5152 52.5057 21.4773 51.8239 20.1364C51.142 18.7879 50.8011 17.2008 50.8011 15.375C50.8011 13.5795 51.142 12.0038 51.8239 10.6477C52.5133 9.28409 53.4754 8.22348 54.7102 7.46591C55.9451 6.70076 57.3958 6.31818 59.0625 6.31818C60.1383 6.31818 61.1534 6.49242 62.108 6.84091C63.0701 7.18182 63.9186 7.71212 64.6534 8.43182C65.3958 9.15151 65.9792 10.0682 66.4034 11.1818C66.8277 12.2879 67.0398 13.6061 67.0398 15.1364V16.3977H52.733V13.625H63.0966C63.089 12.8371 62.9186 12.1364 62.5852 11.5227C62.2519 10.9015 61.786 10.4129 61.1875 10.0568C60.5966 9.70076 59.9072 9.52273 59.1193 9.52273C58.2784 9.52273 57.5398 9.72727 56.9034 10.1364C56.267 10.5379 55.7708 11.0682 55.4148 11.7273C55.0663 12.3788 54.8883 13.0947 54.8807 13.875V16.2955C54.8807 17.3106 55.0663 18.1818 55.4375 18.9091C55.8087 19.6288 56.3277 20.1818 56.9943 20.5682C57.661 20.947 58.4413 21.1364 59.3352 21.1364C59.9337 21.1364 60.4754 21.053 60.9602 20.8864C61.4451 20.7121 61.8655 20.4583 62.2216 20.125C62.5777 19.7917 62.8466 19.3788 63.0284 18.8864L66.8693 19.3182C66.6269 20.3333 66.1648 21.2197 65.483 21.9773C64.8087 22.7273 63.9451 23.3106 62.892 23.7273C61.839 24.1364 60.6345 24.3409 59.2784 24.3409ZM70.5199 24V6.54545H74.5085V9.45455H74.6903C75.0085 8.44697 75.554 7.67045 76.3267 7.125C77.107 6.57197 77.9972 6.29545 78.9972 6.29545C79.2244 6.29545 79.4782 6.30682 79.7585 6.32954C80.0464 6.3447 80.285 6.37121 80.4744 6.40909V10.1932C80.3002 10.1326 80.0237 10.0795 79.6449 10.0341C79.2737 9.98106 78.9138 9.95455 78.5653 9.95455C77.8153 9.95455 77.1411 10.1174 76.5426 10.4432C75.9517 10.7614 75.4858 11.2045 75.1449 11.7727C74.804 12.3409 74.6335 12.9962 74.6335 13.7386V24H70.5199ZM83.7415 24.25C83.0521 24.25 82.4612 24.0076 81.9688 23.5227C81.4763 23.0379 81.2339 22.447 81.2415 21.75C81.2339 21.0682 81.4763 20.4848 81.9688 20C82.4612 19.5152 83.0521 19.2727 83.7415 19.2727C84.4081 19.2727 84.9877 19.5152 85.4801 20C85.9801 20.4848 86.2339 21.0682 86.2415 21.75C86.2339 22.2121 86.1127 22.6326 85.8778 23.0114C85.6506 23.3902 85.3475 23.6932 84.9688 23.9205C84.5975 24.1402 84.1884 24.25 83.7415 24.25Z" fill="#FF4A3E"/>
<path d="M96.9659 24.3068C95.5947 24.3068 94.3674 23.9545 93.2841 23.25C92.2008 22.5455 91.3447 21.5227 90.7159 20.1818C90.0871 18.8409 89.7727 17.2121 89.7727 15.2955C89.7727 13.3561 90.0909 11.7197 90.7273 10.3864C91.3712 9.04545 92.2386 8.03409 93.3295 7.35227C94.4205 6.66288 95.6364 6.31818 96.9773 6.31818C98 6.31818 98.8409 6.49242 99.5 6.84091C100.159 7.18182 100.682 7.5947 101.068 8.07955C101.455 8.55682 101.754 9.00758 101.966 9.43182H102.136V0.727272H106.261V24H102.216V21.25H101.966C101.754 21.6742 101.447 22.125 101.045 22.6023C100.644 23.072 100.114 23.4735 99.4545 23.8068C98.7955 24.1402 97.9659 24.3068 96.9659 24.3068ZM98.1136 20.9318C98.9848 20.9318 99.7273 20.697 100.341 20.2273C100.955 19.75 101.42 19.0871 101.739 18.2386C102.057 17.3902 102.216 16.4015 102.216 15.2727C102.216 14.1439 102.057 13.1629 101.739 12.3295C101.428 11.4962 100.966 10.8485 100.352 10.3864C99.7462 9.92424 99 9.69318 98.1136 9.69318C97.197 9.69318 96.4318 9.93182 95.8182 10.4091C95.2045 10.8864 94.7424 11.5455 94.4318 12.3864C94.1212 13.2273 93.9659 14.1894 93.9659 15.2727C93.9659 16.3636 94.1212 17.3371 94.4318 18.1932C94.75 19.0417 95.2159 19.7121 95.8295 20.2045C96.4508 20.6894 97.2121 20.9318 98.1136 20.9318ZM118.372 24.3409C116.622 24.3409 115.111 23.9773 113.838 23.25C112.573 22.5152 111.599 21.4773 110.918 20.1364C110.236 18.7879 109.895 17.2008 109.895 15.375C109.895 13.5795 110.236 12.0038 110.918 10.6477C111.607 9.28409 112.569 8.22348 113.804 7.46591C115.039 6.70076 116.49 6.31818 118.156 6.31818C119.232 6.31818 120.247 6.49242 121.202 6.84091C122.164 7.18182 123.012 7.71212 123.747 8.43182C124.49 9.15151 125.073 10.0682 125.497 11.1818C125.921 12.2879 126.134 13.6061 126.134 15.1364V16.3977H111.827V13.625H122.19C122.183 12.8371 122.012 12.1364 121.679 11.5227C121.346 10.9015 120.88 10.4129 120.281 10.0568C119.69 9.70076 119.001 9.52273 118.213 9.52273C117.372 9.52273 116.634 9.72727 115.997 10.1364C115.361 10.5379 114.865 11.0682 114.509 11.7273C114.16 12.3788 113.982 13.0947 113.974 13.875V16.2955C113.974 17.3106 114.16 18.1818 114.531 18.9091C114.902 19.6288 115.421 20.1818 116.088 20.5682C116.755 20.947 117.535 21.1364 118.429 21.1364C119.027 21.1364 119.569 21.053 120.054 20.8864C120.539 20.7121 120.959 20.4583 121.315 20.125C121.671 19.7917 121.94 19.3788 122.122 18.8864L125.963 19.3182C125.721 20.3333 125.259 21.2197 124.577 21.9773C123.902 22.7273 123.039 23.3106 121.986 23.7273C120.933 24.1364 119.728 24.3409 118.372 24.3409ZM144.705 6.54545L138.489 24H133.943L127.727 6.54545H132.114L136.125 19.5114H136.307L140.33 6.54545H144.705Z" fill="#404040"/>
</svg>
