<svg width="253" height="321" viewBox="0 0 253 321" fill="none" xmlns="http://www.w3.org/2000/svg">
<g clip-path="url(#clip0_1_298)">
<path d="M126.5 253.462C196.364 253.462 253 196.796 253 126.896C253 56.9959 196.364 0.330566 126.5 0.330566C56.636 0.330566 0 56.9959 0 126.896C0 196.796 56.636 253.462 126.5 253.462Z" fill="#3D3144"/>
<path d="M224.008 74.7993H199.654C199.203 74.7993 198.771 74.6202 198.453 74.3013C198.134 73.9825 197.955 73.55 197.955 73.0991C197.955 72.6482 198.134 72.2157 198.453 71.8969C198.771 71.578 199.203 71.3989 199.654 71.3989H224.008C224.459 71.3989 224.891 71.578 225.21 71.8969C225.528 72.2157 225.707 72.6482 225.707 73.0991C225.707 73.55 225.528 73.9825 225.21 74.3013C224.891 74.6202 224.459 74.7993 224.008 74.7993Z" fill="#FF4A3E"/>
<path d="M176.15 74.7993H76.4361C75.9854 74.7993 75.5532 74.6202 75.2345 74.3013C74.9158 73.9825 74.7368 73.55 74.7368 73.0991C74.7368 72.6482 74.9158 72.2157 75.2345 71.8969C75.5532 71.578 75.9854 71.3989 76.4361 71.3989H176.15C176.601 71.3989 177.033 71.578 177.352 71.8969C177.671 72.2157 177.85 72.6482 177.85 73.0991C177.85 73.55 177.671 73.9825 177.352 74.3013C177.033 74.6202 176.601 74.7993 176.15 74.7993Z" fill="#FF4A3E"/>
<path d="M60.7046 74.7993H33.1419C32.6912 74.7993 32.259 74.6202 31.9403 74.3013C31.6216 73.9825 31.4426 73.55 31.4426 73.0991C31.4426 72.6482 31.6216 72.2157 31.9403 71.8969C32.259 71.578 32.6912 71.3989 33.1419 71.3989H60.7046C61.1553 71.3989 61.5875 71.578 61.9062 71.8969C62.2249 72.2157 62.4039 72.6482 62.4039 73.0991C62.4039 73.55 62.2249 73.9825 61.9062 74.3013C61.5875 74.6202 61.1553 74.7993 60.7046 74.7993Z" fill="#FF4A3E"/>
<path d="M224.008 88.9698H203.053C202.826 88.975 202.601 88.9349 202.391 88.8518C202.18 88.7687 201.988 88.6443 201.826 88.486C201.664 88.3276 201.536 88.1385 201.448 87.9297C201.36 87.7209 201.315 87.4966 201.315 87.2701C201.315 87.0435 201.36 86.8192 201.448 86.6104C201.536 86.4016 201.664 86.2125 201.826 86.0541C201.988 85.8958 202.18 85.7714 202.391 85.6883C202.601 85.6052 202.826 85.5651 203.053 85.5703H224.008C224.234 85.5651 224.46 85.6052 224.67 85.6883C224.881 85.7714 225.073 85.8958 225.235 86.0541C225.397 86.2125 225.525 86.4016 225.613 86.6104C225.701 86.8192 225.746 87.0435 225.746 87.2701C225.746 87.4966 225.701 87.7209 225.613 87.9297C225.525 88.1385 225.397 88.3276 225.235 88.486C225.073 88.6443 224.881 88.7687 224.67 88.8518C224.46 88.9349 224.234 88.975 224.008 88.9698Z" fill="#FF4A3E"/>
<path d="M190.214 88.9698H64.9863C64.5424 88.9597 64.1202 88.7761 63.8099 88.4584C63.4996 88.1408 63.3259 87.7142 63.3259 87.2701C63.3259 86.8259 63.4996 86.3993 63.8099 86.0817C64.1202 85.764 64.5424 85.5805 64.9863 85.5703H190.214C190.658 85.5805 191.08 85.764 191.39 86.0817C191.7 86.3993 191.874 86.8259 191.874 87.2701C191.874 87.7142 191.7 88.1408 191.39 88.4584C191.08 88.7761 190.658 88.9597 190.214 88.9698Z" fill="#FF4A3E"/>
<path d="M47.6071 88.9698H33.1419C32.698 88.9597 32.2758 88.7761 31.9655 88.4584C31.6552 88.1408 31.4814 87.7142 31.4814 87.2701C31.4814 86.8259 31.6552 86.3993 31.9655 86.0817C32.2758 85.764 32.698 85.5805 33.1419 85.5703H47.6071C48.051 85.5805 48.4732 85.764 48.7835 86.0817C49.0938 86.3993 49.2676 86.8259 49.2676 87.2701C49.2676 87.7142 49.0938 88.1408 48.7835 88.4584C48.4732 88.7761 48.051 88.9597 47.6071 88.9698Z" fill="#FF4A3E"/>
<path d="M224.008 103.132H33.1419C32.6912 103.132 32.259 102.953 31.9403 102.634C31.6216 102.315 31.4426 101.883 31.4426 101.432C31.4426 100.981 31.6216 100.549 31.9403 100.23C32.259 99.911 32.6912 99.7319 33.1419 99.7319H224.008C224.459 99.7319 224.891 99.911 225.21 100.23C225.528 100.549 225.707 100.981 225.707 101.432C225.707 101.883 225.528 102.315 225.21 102.634C224.891 102.953 224.459 103.132 224.008 103.132Z" fill="#FF4A3E"/>
<path d="M224.008 117.298H62.5937C62.3673 117.304 62.1422 117.263 61.9315 117.18C61.7209 117.097 61.529 116.973 61.367 116.815C61.2051 116.656 61.0764 116.467 60.9886 116.258C60.9007 116.049 60.8555 115.825 60.8555 115.599C60.8555 115.372 60.9007 115.148 60.9886 114.939C61.0764 114.73 61.2051 114.541 61.367 114.383C61.529 114.224 61.7209 114.1 61.9315 114.017C62.1422 113.934 62.3673 113.894 62.5937 113.899H224.008C224.234 113.894 224.46 113.934 224.67 114.017C224.881 114.1 225.073 114.224 225.235 114.383C225.397 114.541 225.525 114.73 225.613 114.939C225.701 115.148 225.746 115.372 225.746 115.599C225.746 115.825 225.701 116.049 225.613 116.258C225.525 116.467 225.397 116.656 225.235 116.815C225.073 116.973 224.881 117.097 224.67 117.18C224.46 117.263 224.234 117.304 224.008 117.298Z" fill="#FF4A3E"/>
<path d="M47.6071 117.298H33.1419C32.698 117.288 32.2758 117.105 31.9655 116.787C31.6552 116.469 31.4814 116.043 31.4814 115.599C31.4814 115.154 31.6552 114.728 31.9655 114.41C32.2758 114.093 32.698 113.909 33.1419 113.899H47.6071C48.051 113.909 48.4732 114.093 48.7835 114.41C49.0938 114.728 49.2676 115.154 49.2676 115.599C49.2676 116.043 49.0938 116.469 48.7835 116.787C48.4732 117.105 48.051 117.288 47.6071 117.298Z" fill="#FF4A3E"/>
<path d="M224.008 131.465H211.831C211.38 131.465 210.948 131.286 210.629 130.967C210.311 130.648 210.132 130.216 210.132 129.765C210.132 129.314 210.311 128.882 210.629 128.563C210.948 128.244 211.38 128.065 211.831 128.065H224.008C224.459 128.065 224.891 128.244 225.21 128.563C225.528 128.882 225.707 129.314 225.707 129.765C225.707 130.216 225.528 130.648 225.21 130.967C224.891 131.286 224.459 131.465 224.008 131.465Z" fill="#FF4A3E"/>
<path d="M199.654 131.465H33.1419C32.6912 131.465 32.259 131.286 31.9403 130.967C31.6216 130.648 31.4426 130.216 31.4426 129.765C31.4426 129.314 31.6216 128.882 31.9403 128.563C32.259 128.244 32.6912 128.065 33.1419 128.065H199.654C200.105 128.065 200.537 128.244 200.856 128.563C201.174 128.882 201.354 129.314 201.354 129.765C201.354 130.216 201.174 130.648 200.856 130.967C200.537 131.286 200.105 131.465 199.654 131.465Z" fill="#FF4A3E"/>
<path d="M224.008 145.631H33.1419C32.698 145.621 32.2758 145.438 31.9655 145.12C31.6552 144.802 31.4814 144.376 31.4814 143.932C31.4814 143.487 31.6552 143.061 31.9655 142.743C32.2758 142.426 32.698 142.242 33.1419 142.232H224.008C224.234 142.227 224.459 142.267 224.67 142.35C224.881 142.433 225.073 142.557 225.235 142.716C225.397 142.874 225.525 143.063 225.613 143.272C225.701 143.481 225.746 143.705 225.746 143.932C225.746 144.158 225.701 144.382 225.613 144.591C225.525 144.8 225.397 144.989 225.235 145.148C225.073 145.306 224.881 145.43 224.67 145.513C224.459 145.596 224.234 145.637 224.008 145.631Z" fill="#FF4A3E"/>
<path d="M224.008 159.798H210.264C210.037 159.803 209.812 159.763 209.601 159.68C209.391 159.597 209.199 159.473 209.037 159.314C208.875 159.156 208.746 158.967 208.658 158.758C208.571 158.549 208.525 158.325 208.525 158.099C208.525 157.872 208.571 157.648 208.658 157.439C208.746 157.23 208.875 157.041 209.037 156.883C209.199 156.724 209.391 156.6 209.601 156.517C209.812 156.434 210.037 156.394 210.264 156.399H224.006C224.233 156.394 224.458 156.434 224.668 156.517C224.879 156.6 225.071 156.724 225.233 156.883C225.395 157.041 225.523 157.23 225.611 157.439C225.699 157.648 225.744 157.872 225.744 158.099C225.744 158.325 225.699 158.549 225.611 158.758C225.523 158.967 225.395 159.156 225.233 159.314C225.071 159.473 224.879 159.597 224.668 159.68C224.458 159.763 224.233 159.803 224.006 159.798H224.008Z" fill="#FF4A3E"/>
<path d="M195.84 159.798H70.1449C69.9185 159.803 69.6934 159.763 69.4828 159.68C69.2721 159.597 69.0802 159.473 68.9182 159.314C68.7563 159.156 68.6276 158.967 68.5398 158.758C68.4519 158.549 68.4067 158.325 68.4067 158.099C68.4067 157.872 68.4519 157.648 68.5398 157.439C68.6276 157.23 68.7563 157.041 68.9182 156.883C69.0802 156.724 69.2721 156.6 69.4828 156.517C69.6934 156.434 69.9185 156.394 70.1449 156.399H195.84C196.284 156.409 196.706 156.592 197.017 156.91C197.327 157.228 197.501 157.654 197.501 158.099C197.501 158.543 197.327 158.969 197.017 159.287C196.706 159.605 196.284 159.788 195.84 159.798Z" fill="#FF4A3E"/>
<path d="M49.3778 159.798H33.1419C32.698 159.788 32.2758 159.605 31.9655 159.287C31.6552 158.969 31.4814 158.543 31.4814 158.099C31.4814 157.654 31.6552 157.228 31.9655 156.91C32.2758 156.592 32.698 156.409 33.1419 156.399H49.3778C49.8216 156.409 50.2438 156.592 50.5541 156.91C50.8644 157.228 51.0382 157.654 51.0382 158.099C51.0382 158.543 50.8644 158.969 50.5541 159.287C50.2438 159.605 49.8216 159.788 49.3778 159.798Z" fill="#FF4A3E"/>
<path d="M224.008 173.965H193.349C193.126 173.965 192.905 173.921 192.698 173.836C192.492 173.75 192.305 173.625 192.147 173.467C191.989 173.309 191.864 173.122 191.779 172.916C191.693 172.709 191.649 172.488 191.649 172.265C191.649 172.042 191.693 171.821 191.779 171.614C191.864 171.408 191.989 171.221 192.147 171.063C192.305 170.905 192.492 170.78 192.698 170.694C192.905 170.609 193.126 170.565 193.349 170.565H224.008C224.231 170.565 224.452 170.609 224.658 170.694C224.864 170.78 225.052 170.905 225.21 171.063C225.367 171.221 225.493 171.408 225.578 171.614C225.663 171.821 225.707 172.042 225.707 172.265C225.707 172.488 225.663 172.709 225.578 172.916C225.493 173.122 225.367 173.309 225.21 173.467C225.052 173.625 224.864 173.75 224.658 173.836C224.452 173.921 224.231 173.965 224.008 173.965Z" fill="#FF4A3E"/>
<path d="M169.451 173.965H33.1419C32.6912 173.965 32.259 173.786 31.9403 173.467C31.6216 173.148 31.4426 172.716 31.4426 172.265C31.4426 171.814 31.6216 171.382 31.9403 171.063C32.259 170.744 32.6912 170.565 33.1419 170.565H169.451C169.902 170.565 170.334 170.744 170.653 171.063C170.971 171.382 171.15 171.814 171.15 172.265C171.15 172.716 170.971 173.148 170.653 173.467C170.334 173.786 169.902 173.965 169.451 173.965Z" fill="#FF4A3E"/>
<g opacity="0.3">
<path opacity="0.3" d="M6.53537 312.524C46.8132 322.933 206.174 322.933 246.452 312.524C250.178 311.561 249.269 307.242 245.345 307.242H7.64301C3.7186 307.242 2.80967 311.561 6.53537 312.524Z" fill="#000072"/>
</g>
<path d="M17.8113 306.667C22.3399 305.782 26.8685 305.547 31.3971 305.45C35.9248 305.326 40.4534 305.392 44.9819 305.459C49.5105 305.512 54.0388 305.532 58.5668 305.517H208.005H214.797C217.061 305.517 219.325 305.44 221.59 305.403C226.118 305.384 230.647 305.435 235.175 306.67C235.301 306.705 235.412 306.78 235.491 306.884C235.57 306.987 235.613 307.114 235.613 307.245C235.613 307.376 235.57 307.503 235.491 307.607C235.412 307.71 235.301 307.785 235.175 307.82C230.647 309.056 226.118 309.108 221.59 309.087C219.325 309.05 217.061 308.971 214.797 308.973H208.005H58.5668C54.0388 308.964 49.5105 308.983 44.9819 309.03C40.4534 309.098 35.9248 309.163 31.3971 309.04C26.8685 308.943 22.3399 308.707 17.8113 307.822C17.6779 307.796 17.5576 307.725 17.4711 307.62C17.3846 307.515 17.3373 307.383 17.3373 307.247C17.3373 307.111 17.3846 306.979 17.4711 306.874C17.5576 306.769 17.6779 306.698 17.8113 306.672V306.667Z" fill="#3D3144"/>
<path d="M182.509 294.957L183.222 294.868C203.175 292.494 216.832 273.559 212.793 253.865L205.297 217.31C203.637 209.22 199.237 201.95 192.841 196.73C186.444 191.51 178.442 188.659 170.187 188.658H84.1887C75.9338 188.658 67.932 191.51 61.5352 196.73C55.1383 201.95 50.7386 209.22 49.0793 217.31L41.5824 253.865C37.5439 273.557 51.201 292.494 71.1528 294.868L71.8656 294.957H182.509Z" fill="#4D5A6A"/>
<path d="M182.525 295.231H71.8674L71.1207 295.142C66.3658 294.577 61.7799 293.031 57.6532 290.601C53.5266 288.171 49.949 284.911 47.1469 281.026C44.3448 277.141 42.3793 272.717 41.3747 268.033C40.3701 263.348 40.3482 258.507 41.3106 253.814L48.8066 217.26C52.2382 200.53 67.1169 188.388 84.1833 188.388H170.183C187.252 188.388 202.131 200.53 205.559 217.26L213.056 253.814C214.019 258.507 213.997 263.348 212.993 268.032C211.988 272.716 210.023 277.141 207.221 281.026C204.42 284.911 200.842 288.172 196.716 290.602C192.589 293.032 188.004 294.579 183.249 295.144L182.525 295.231ZM84.1887 188.94C67.3789 188.94 52.7247 200.898 49.3466 217.373L41.8506 253.927C40.9035 258.545 40.9248 263.31 41.9132 267.92C42.9017 272.53 44.8358 276.884 47.5931 280.707C50.3504 284.531 53.8709 287.74 57.9318 290.131C61.9926 292.523 66.5055 294.045 71.1848 294.602L71.8977 294.691H182.492L183.19 294.608C187.869 294.052 192.382 292.53 196.443 290.138C200.504 287.746 204.025 284.537 206.782 280.714C209.54 276.891 211.474 272.536 212.462 267.926C213.45 263.317 213.472 258.552 212.524 253.933L205.028 217.379C201.649 200.904 186.996 188.946 170.185 188.946L84.1887 188.94Z" fill="#000072"/>
<g opacity="0.3">
<path opacity="0.3" d="M183.225 294.875L182.512 294.958H71.8683L71.1555 294.875C58.3895 293.359 48.2042 285.052 43.5723 274.118C48.8269 278.847 55.4189 281.828 62.4387 282.65L63.1516 282.732H173.794L174.507 282.65C194.462 280.275 208.12 261.341 204.077 241.648L196.584 205.094C196.088 202.678 195.344 200.32 194.366 198.056C199.957 203.154 203.785 209.898 205.296 217.314L212.793 253.868C216.832 273.559 203.174 292.5 183.225 294.875Z" fill="#000072"/>
</g>
<g opacity="0.55">
<path opacity="0.55" d="M187.875 193.335C183.694 191.688 179.24 190.844 174.746 190.849H88.7484C71.7284 190.849 57.0564 202.818 53.639 219.5L46.1404 256.054C43.0607 271.076 50.2733 285.654 62.7238 292.778C47.5376 286.865 38.1436 270.641 41.5797 253.871L49.0784 217.317C52.4966 200.644 67.1677 188.665 84.1878 188.665H170.185C176.386 188.659 182.483 190.269 187.875 193.335Z" fill="white"/>
</g>
<path d="M182.509 296.742H71.8674C71.7974 296.741 71.7275 296.737 71.658 296.729L70.9451 296.64C65.9829 296.05 61.1972 294.435 56.8908 291.899C52.5844 289.362 48.8511 285.959 45.9272 281.905C43.0032 277.85 40.9522 273.233 39.904 268.344C38.8558 263.456 38.8332 258.403 39.8376 253.505L47.3327 216.951C50.9078 199.523 66.4085 186.873 84.1913 186.873H170.191C187.973 186.873 203.474 199.523 207.049 216.951L214.544 253.505C215.549 258.403 215.526 263.456 214.478 268.344C213.429 273.232 211.378 277.85 208.454 281.904C205.531 285.959 201.797 289.362 197.491 291.898C193.185 294.434 188.399 296.049 183.437 296.639L182.724 296.728C182.653 296.737 182.581 296.741 182.509 296.742ZM71.9734 293.175H182.403L183.015 293.103C187.486 292.571 191.799 291.116 195.68 288.83C199.561 286.545 202.925 283.478 205.56 279.824C208.195 276.17 210.043 272.009 210.987 267.604C211.932 263.198 211.952 258.645 211.047 254.231L203.551 217.677C200.315 201.896 186.284 190.45 170.188 190.45H84.1887C68.0918 190.45 54.0614 201.901 50.8258 217.677L43.3298 254.231C42.4243 258.645 42.4444 263.198 43.3888 267.604C44.3333 272.009 46.1815 276.171 48.8166 279.825C51.4516 283.479 54.8161 286.546 58.6971 288.831C62.5781 291.117 66.8911 292.571 71.363 293.103L71.9734 293.175Z" fill="#3D3144"/>
<path d="M190.711 161.669C190.604 162.085 190.491 162.508 190.378 162.917C190.289 163.233 190.2 163.541 190.11 163.851C190.075 163.97 190.044 164.083 190.003 164.202C189.932 164.458 189.848 164.714 189.771 164.964C189.67 165.291 189.563 165.612 189.456 165.933C189.408 166.076 189.361 166.218 189.314 166.356C189.159 166.819 188.998 167.278 188.826 167.73C188.648 168.23 188.457 168.724 188.261 169.211C188.065 169.699 187.868 170.192 187.661 170.681C187.453 171.169 187.245 171.651 187.025 172.126C186.804 172.601 186.602 173.049 186.382 173.506L186.293 173.684C186.091 174.112 185.877 174.535 185.657 174.958C185.65 174.969 185.645 174.981 185.639 174.993C185.401 175.463 185.157 175.921 184.907 176.385C184.61 176.932 184.305 177.474 183.992 178.009C183.777 178.384 183.558 178.753 183.338 179.121C183.329 179.129 183.323 179.14 183.32 179.151C183.047 179.604 182.767 180.049 182.482 180.496C182.006 181.24 181.518 181.977 181.013 182.709C180.793 183.03 180.568 183.345 180.341 183.661C180.151 183.928 179.961 184.19 179.764 184.458C179.472 184.857 179.176 185.249 178.878 185.642C178.58 186.035 178.295 186.391 177.999 186.766C177.832 186.974 177.665 187.183 177.499 187.385L177.178 187.777C176.976 188.015 176.78 188.253 176.577 188.491C176.03 189.133 175.471 189.769 174.9 190.4C174.627 190.71 174.341 191.013 174.056 191.316C173.848 191.536 173.64 191.762 173.433 191.983C173.135 192.292 172.844 192.595 172.541 192.893C172.114 193.327 171.674 193.762 171.233 194.189C170.877 194.535 170.52 194.874 170.157 195.207C170.106 195.259 170.053 195.309 169.996 195.356C169.628 195.707 169.253 196.046 168.873 196.385C168.177 197.009 167.469 197.617 166.75 198.218C166.572 198.366 166.394 198.514 166.209 198.67C165.847 198.967 165.478 199.264 165.103 199.561C163.807 200.59 162.481 201.584 161.126 202.542C161.102 202.559 161.072 202.577 161.048 202.595C155.857 206.252 150.117 209.055 144.042 210.9C132.78 214.334 120.759 214.387 109.467 211.054C103.174 209.201 97.2279 206.325 91.8673 202.542C91.4387 202.238 91.0109 201.928 90.5832 201.619C90.542 201.584 90.4982 201.552 90.4522 201.524C90.0298 201.209 89.6075 200.893 89.1913 200.578C88.7576 200.245 88.3237 199.906 87.8894 199.561H87.8832C87.4554 199.216 87.0331 198.871 86.6107 198.526C86.1883 198.181 85.7668 197.817 85.3507 197.461C84.9345 197.104 84.5237 196.747 84.1192 196.384C83.7146 196.02 83.3047 195.653 82.9064 195.277C82.508 194.902 82.116 194.534 81.723 194.153C81.33 193.772 80.9442 193.398 80.5646 193.011C80.1849 192.624 79.8036 192.238 79.4293 191.845C79.055 191.451 78.6799 191.048 78.3056 190.643C77.9492 190.251 77.5981 189.858 77.247 189.453C76.9734 189.144 76.6998 188.829 76.4325 188.513C75.6537 187.591 74.8945 186.651 74.1548 185.694C73.8572 185.301 73.5542 184.908 73.2691 184.51C73.2272 184.462 73.1916 184.408 73.1559 184.361C72.9536 184.093 72.7576 183.82 72.5678 183.546C72.1276 182.927 71.699 182.309 71.2828 181.678C71.0511 181.333 70.8195 180.982 70.5994 180.631C70.2607 180.101 69.9275 179.571 69.6004 179.026C69.3741 178.645 69.1424 178.259 68.917 177.872C68.6077 177.331 68.3039 176.777 68.0009 176.224C67.7808 175.807 67.5607 175.391 67.3468 174.975C67.133 174.56 66.9129 174.125 66.7106 173.697C66.6763 173.64 66.6465 173.58 66.6215 173.519C66.1694 172.597 65.7473 171.665 65.3552 170.723C65.3321 170.686 65.3141 170.646 65.3017 170.604C65.1048 170.14 64.915 169.676 64.7305 169.206C64.5345 168.718 64.3438 168.225 64.1656 167.724C63.9874 167.223 63.8029 166.731 63.6363 166.231C63.5115 165.863 63.3868 165.487 63.2683 165.113C63.1729 164.815 63.0838 164.518 62.9947 164.221C62.9528 164.09 62.9109 163.954 62.8753 163.823C62.7862 163.531 62.7033 163.246 62.6258 162.954C62.5064 162.526 62.3941 162.098 62.2809 161.663C57.8334 130.252 86.3799 95.4203 114.903 80.4786C118.481 78.606 122.46 77.628 126.498 77.628C130.536 77.628 134.514 78.606 138.092 80.4786C138.735 80.812 139.371 81.1686 140.013 81.5377L140.019 81.544C167.885 97.5761 195.057 130.962 190.711 161.669Z" fill="#4D5A6A"/>
<g opacity="0.4">
<path opacity="0.4" d="M137.461 212.394C138.27 212.184 139.075 211.963 139.875 211.719C145.951 209.875 151.694 207.071 156.887 203.414C156.911 203.396 156.94 203.378 156.964 203.36C158.32 202.403 159.646 201.409 160.942 200.38C161.316 200.082 161.685 199.785 162.048 199.488L162.589 199.036C163.309 198.435 164.015 197.829 164.711 197.204C165.092 196.864 165.467 196.525 165.836 196.175C165.892 196.128 165.946 196.079 165.996 196.026C166.359 195.693 166.715 195.354 167.073 195.009C167.512 194.58 167.952 194.146 168.38 193.712C168.684 193.414 168.975 193.111 169.271 192.801C169.48 192.581 169.687 192.356 169.895 192.135C170.18 191.831 170.466 191.528 170.739 191.219C171.31 190.588 171.869 189.952 172.416 189.309C172.618 189.072 172.814 188.833 173.016 188.596L173.338 188.203C173.504 188 173.67 187.793 173.837 187.584C174.135 187.209 174.425 186.84 174.717 186.46C175.008 186.079 175.312 185.674 175.602 185.276C175.799 185.008 175.989 184.746 176.18 184.479C176.405 184.164 176.632 183.848 176.852 183.527C177.357 182.795 177.844 182.058 178.32 181.314C178.605 180.868 178.885 180.422 179.159 179.969C179.162 179.958 179.168 179.947 179.177 179.94C179.397 179.571 179.617 179.201 179.831 178.827C180.145 178.292 180.449 177.75 180.747 177.203C180.996 176.739 181.24 176.281 181.477 175.811C181.484 175.799 181.49 175.788 181.495 175.775C181.715 175.353 181.929 174.93 182.132 174.502C182.162 174.442 182.191 174.383 182.221 174.324C182.441 173.865 182.655 173.408 182.863 172.944C183.072 172.479 183.297 171.98 183.499 171.498C183.702 171.017 183.909 170.518 184.1 170.028C184.291 169.539 184.487 169.047 184.665 168.547C184.837 168.095 184.997 167.637 185.152 167.173C185.2 167.036 185.248 166.893 185.295 166.751C185.402 166.43 185.509 166.108 185.61 165.781C185.687 165.531 185.771 165.275 185.842 165.019C185.884 164.9 185.913 164.788 185.949 164.668C186.038 164.359 186.127 164.049 186.216 163.735C186.329 163.324 186.443 162.902 186.55 162.486C190.843 132.16 164.384 99.2121 136.879 82.9642C156.228 100.573 170.869 125.245 167.594 148.393C167.486 148.81 167.374 149.232 167.261 149.642C167.172 149.957 167.083 150.266 166.993 150.576C166.957 150.695 166.928 150.808 166.887 150.927C166.814 151.182 166.731 151.438 166.654 151.689C166.553 152.016 166.446 152.337 166.339 152.658C166.291 152.8 166.244 152.943 166.196 153.08C166.042 153.544 165.881 154.002 165.708 154.454C165.53 154.954 165.34 155.448 165.144 155.936C164.947 156.424 164.751 156.917 164.544 157.405C164.336 157.894 164.127 158.375 163.907 158.851C163.687 159.326 163.485 159.773 163.265 160.231L163.176 160.409C162.974 160.837 162.76 161.26 162.54 161.682C162.533 161.694 162.528 161.706 162.522 161.718C162.284 162.188 162.041 162.645 161.79 163.11C161.493 163.657 161.19 164.198 160.874 164.734C160.66 165.108 160.44 165.478 160.22 165.847C160.211 165.854 160.205 165.865 160.202 165.876C159.93 166.328 159.65 166.774 159.365 167.221C158.889 167.964 158.401 168.701 157.896 169.433C157.676 169.754 157.451 170.07 157.224 170.386C157.034 170.653 156.843 170.914 156.647 171.183C156.355 171.581 156.058 171.973 155.761 172.367C155.464 172.76 155.178 173.116 154.882 173.491C154.715 173.699 154.548 173.907 154.382 174.11L154.061 174.502C153.859 174.74 153.663 174.978 153.46 175.215C152.913 175.857 152.354 176.494 151.783 177.125C151.51 177.434 151.225 177.737 150.938 178.041C150.731 178.261 150.523 178.487 150.315 178.707C150.017 179.017 149.726 179.32 149.424 179.618C148.995 180.052 148.556 180.486 148.115 180.914C147.759 181.259 147.403 181.599 147.039 181.931C146.988 181.984 146.935 182.034 146.879 182.08C146.511 182.432 146.135 182.77 145.755 183.109C145.059 183.733 144.351 184.341 143.632 184.942C143.454 185.09 143.276 185.239 143.091 185.394C142.728 185.691 142.359 185.989 141.985 186.286C140.689 187.315 139.363 188.308 138.007 189.266C137.984 189.284 137.954 189.302 137.93 189.32C132.74 192.976 126.999 195.78 120.924 197.625C115.434 199.299 109.733 200.178 103.993 200.234C107.567 200.199 111.13 199.845 114.64 199.177C114.742 199.157 114.843 199.135 114.944 199.115C113.662 199.448 112.372 199.744 111.073 199.992C103.308 201.467 95.3285 201.399 87.5891 199.794C87.5 199.723 87.4109 199.654 87.3218 199.583C87.7477 199.921 88.1737 200.254 88.5996 200.581C89.0158 200.897 89.4381 201.211 89.8596 201.527C89.9059 201.555 89.9498 201.587 89.9906 201.622C90.4193 201.932 90.847 202.241 91.2747 202.544C97.869 207.191 105.33 210.463 113.214 212.165C121.098 213.868 129.244 213.966 137.166 212.455C138.273 212.243 139.374 212.001 140.469 211.727C139.473 211.972 138.47 212.195 137.461 212.394Z" fill="#000072"/>
</g>
<g opacity="0.55">
<path opacity="0.55" d="M150.212 88.5757C148.018 87.0886 145.8 85.7031 143.582 84.4237L143.577 84.4175C142.935 84.0493 142.298 83.6918 141.657 83.3583C138.078 81.4858 134.1 80.5077 130.062 80.5077C126.023 80.5077 122.045 81.4858 118.467 83.3583C89.9443 98.2965 61.3969 133.134 65.8444 164.546C65.9576 164.98 66.0708 165.408 66.1893 165.837C66.2668 166.128 66.3506 166.414 66.4397 166.705C66.4753 166.836 66.5163 166.973 66.5582 167.104C66.6473 167.402 66.7364 167.698 66.8318 167.995C66.9512 168.37 67.0759 168.745 67.2007 169.114C67.3673 169.614 67.5455 170.113 67.73 170.607C67.9145 171.101 68.098 171.601 68.295 172.089C68.4785 172.558 68.6692 173.022 68.8653 173.486C68.878 173.528 68.896 173.568 68.9187 173.605C69.312 174.545 69.7341 175.477 70.185 176.401C70.2101 176.463 70.2399 176.522 70.2741 176.579C70.4755 177.007 70.6902 177.436 70.9103 177.858C71.1304 178.28 71.3443 178.691 71.5644 179.106C71.8674 179.659 72.1704 180.212 72.4796 180.754C72.7059 181.141 72.9376 181.527 73.163 181.907C73.4901 182.449 73.8234 182.977 74.162 183.512C74.3821 183.863 74.6147 184.215 74.8463 184.56C75.2625 185.19 75.6902 185.808 76.1304 186.428C76.3211 186.701 76.5172 186.975 76.7194 187.242C76.7551 187.29 76.7907 187.343 76.8317 187.391C77.1178 187.79 77.4207 188.182 77.7184 188.575C78.455 189.533 79.2139 190.473 79.9951 191.395C80.2625 191.71 80.5369 192.026 80.8096 192.335C81.1607 192.74 81.5118 193.132 81.8682 193.524C82.2434 193.929 82.6176 194.327 82.9919 194.726C83.3662 195.126 83.7476 195.505 84.1281 195.892C84.5086 196.279 84.8953 196.66 85.2865 197.034C85.6777 197.409 86.0716 197.79 86.4699 198.159C86.8682 198.527 87.2719 198.897 87.6827 199.265C88.0935 199.633 88.4971 199.986 88.9133 200.342C89.3294 200.699 89.7456 201.055 90.1742 201.408C90.6028 201.76 91.0181 202.098 91.4467 202.443H91.4529C91.8866 202.787 92.3206 203.127 92.7548 203.46C93.1416 203.751 93.5336 204.043 93.9257 204.34C93.4332 204.019 92.9437 203.686 92.4572 203.34C92.0295 203.037 91.6009 202.728 91.1731 202.419C91.1319 202.384 91.0881 202.352 91.0421 202.323C90.6197 202.008 90.1994 201.692 89.7812 201.377C89.347 201.045 88.913 200.706 88.4793 200.36H88.474C88.0454 200.015 87.623 199.67 87.2015 199.325C86.78 198.98 86.3567 198.617 85.9406 198.26C85.5244 197.904 85.1136 197.547 84.71 197.183C84.3063 196.82 83.8955 196.451 83.4972 196.077C83.0988 195.702 82.7059 195.333 82.3138 194.953C81.9217 194.572 81.535 194.197 81.1553 193.811C80.7757 193.425 80.3935 193.037 80.0192 192.644C79.6449 192.252 79.2698 191.847 78.8955 191.443C78.5391 191.049 78.188 190.657 77.8369 190.252C77.5633 189.943 77.2897 189.628 77.0224 189.313C76.2436 188.391 75.4844 187.451 74.7448 186.493C74.448 186.1 74.1442 185.707 73.859 185.309C73.8171 185.261 73.7815 185.208 73.7458 185.161C73.5444 184.893 73.3475 184.619 73.1577 184.345C72.7175 183.726 72.2898 183.108 71.8736 182.477C71.641 182.132 71.4094 181.782 71.1893 181.43C70.8506 180.901 70.5174 180.371 70.1903 179.826C69.9649 179.445 69.7323 179.058 69.5069 178.671C69.1976 178.13 68.8947 177.577 68.5908 177.023C68.3707 176.607 68.1506 176.191 67.9367 175.775C67.7229 175.36 67.5028 174.925 67.3005 174.496C67.266 174.439 67.2362 174.379 67.2114 174.317C66.7596 173.396 66.3372 172.461 65.9451 171.521C65.9222 171.484 65.9042 171.444 65.8917 171.402C65.6956 170.938 65.5049 170.475 65.3205 170.004C65.1244 169.516 64.9346 169.023 64.7555 168.523C64.5764 168.023 64.3928 167.53 64.2271 167.03C64.1014 166.661 63.9767 166.286 63.8582 165.912C63.7628 165.614 63.6737 165.316 63.5846 165.02C63.5427 164.889 63.5008 164.753 63.4652 164.622C63.3761 164.33 63.2932 164.044 63.2157 163.752C63.0972 163.324 62.984 162.896 62.8708 162.462C58.4233 131.051 86.9698 96.2129 115.493 81.2747C119.071 79.4018 123.049 78.4236 127.088 78.4236C131.126 78.4236 135.104 79.4018 138.682 81.2747C139.325 81.6082 139.961 81.9648 140.603 82.3339L140.609 82.3393C143.917 84.2475 147.123 86.3292 150.212 88.5757Z" fill="white"/>
</g>
<path d="M126.494 215.291C113.728 215.304 101.271 211.361 90.8363 204.004C90.4009 203.695 89.9672 203.383 89.5353 203.069L89.4694 203.02C89.4391 203 89.4105 202.979 89.3803 202.958C88.9347 202.622 88.5177 202.313 88.1095 202.005C87.6881 201.681 87.2746 201.358 86.862 201.03C86.8273 201.006 86.7943 200.981 86.7613 200.955C86.3434 200.618 85.9308 200.281 85.5138 199.944C85.0344 199.55 84.6075 199.185 84.1816 198.819C83.7556 198.454 83.3341 198.087 82.9207 197.716L82.8618 197.663C82.4608 197.306 82.0661 196.95 81.6767 196.581C81.2873 196.212 80.8747 195.828 80.4737 195.438C80.078 195.061 79.6779 194.666 79.285 194.267C78.892 193.868 78.5026 193.472 78.1265 193.08C77.7398 192.669 77.3628 192.268 76.9859 191.86C76.609 191.451 76.2472 191.041 75.8872 190.627C75.6199 190.321 75.3347 189.996 75.0602 189.67C74.2431 188.705 73.4563 187.735 72.73 186.786L72.5331 186.526C72.3005 186.221 72.067 185.913 71.8434 185.603C71.8024 185.551 71.7632 185.499 71.7257 185.447C71.5056 185.155 71.2962 184.863 71.0922 184.57C70.6145 183.898 70.1832 183.27 69.7831 182.666C69.5488 182.317 69.3064 181.953 69.0765 181.584C68.7379 181.054 68.3966 180.514 68.0624 179.957L67.8521 179.6C67.6887 179.327 67.5263 179.053 67.3647 178.777C67.0581 178.242 66.765 177.707 66.4736 177.172L66.4263 177.083C66.1893 176.637 65.9665 176.213 65.7491 175.79C65.5317 175.368 65.3196 174.949 65.1164 174.521C65.0676 174.434 65.0233 174.345 64.9837 174.253C64.5034 173.26 64.0925 172.354 63.7299 171.489C63.6891 171.409 63.6531 171.326 63.622 171.241C63.4287 170.782 63.2407 170.324 63.0589 169.86C62.8602 169.364 62.6614 168.849 62.4752 168.326C62.297 167.838 62.1072 167.318 61.9334 166.797C61.8078 166.425 61.6794 166.04 61.5565 165.655C61.4593 165.35 61.3676 165.043 61.2749 164.736C61.2339 164.607 61.1858 164.448 61.1439 164.295C61.0628 164.028 60.9737 163.725 60.8908 163.412C60.775 162.995 60.6591 162.558 60.5442 162.115C60.5273 162.049 60.5139 161.982 60.5041 161.915C57.8112 142.893 66.7676 125.289 74.7564 113.871C84.8508 99.4421 99.1788 86.6954 114.065 78.8987C117.898 76.8905 122.16 75.8416 126.487 75.8416C130.814 75.8416 135.076 76.8905 138.91 78.8987C153.791 86.6954 168.123 99.443 178.218 113.871C186.207 125.289 195.163 142.893 192.47 161.915C192.461 161.98 192.447 162.045 192.431 162.109C192.322 162.535 192.206 162.967 192.09 163.388L191.785 164.452C191.758 164.541 191.731 164.636 191.7 164.729C191.647 164.917 191.588 165.105 191.53 165.289L191.469 165.486C191.371 165.803 191.268 166.111 191.166 166.422L191.142 166.492C191.091 166.646 191.041 166.795 190.991 166.938C190.836 167.403 190.667 167.886 190.486 168.364C190.305 168.843 190.114 169.367 189.908 169.88C189.721 170.368 189.511 170.875 189.294 171.382C189.087 171.875 188.865 172.383 188.636 172.878C188.431 173.337 188.21 173.809 187.983 174.282L187.879 174.488C187.688 174.898 187.462 175.342 187.231 175.785C186.979 176.285 186.728 176.756 186.471 177.233C186.161 177.805 185.847 178.364 185.523 178.917C185.314 179.283 185.088 179.661 184.863 180.039L184.855 180.051L184.839 180.079C184.558 180.543 184.27 181.001 183.977 181.461C183.454 182.278 182.962 183.019 182.474 183.726C182.25 184.052 182.017 184.378 181.784 184.707C181.592 184.974 181.397 185.242 181.197 185.518C180.899 185.926 180.596 186.321 180.293 186.725C179.99 187.13 179.692 187.499 179.387 187.884C179.209 188.104 179.04 188.319 178.868 188.528L177.929 189.656C177.369 190.313 176.793 190.969 176.215 191.608C175.953 191.905 175.662 192.214 175.373 192.522L174.719 193.219C174.393 193.558 174.096 193.87 173.781 194.177C173.366 194.598 172.918 195.041 172.468 195.479C172.105 195.829 171.746 196.171 171.38 196.507C171.313 196.574 171.243 196.64 171.175 196.698C170.806 197.049 170.431 197.388 170.05 197.727C169.311 198.384 168.582 199.013 167.885 199.599L167.35 200.045C166.964 200.362 166.588 200.665 166.207 200.968C164.892 202.012 163.527 203.035 162.149 204.009L162.083 204.055L162.067 204.064C151.649 211.384 139.224 215.305 126.494 215.291ZM91.6695 200.208C92.0776 200.504 92.4866 200.799 92.8957 201.088C112.958 215.251 139.933 215.271 160.021 201.138C160.048 201.118 160.079 201.097 160.096 201.086C161.42 200.15 162.73 199.168 163.993 198.166C164.359 197.874 164.72 197.582 165.077 197.291L165.605 196.845C166.274 196.286 166.975 195.682 167.686 195.049C168.05 194.724 168.411 194.399 168.765 194.061C168.795 194.032 168.827 194.004 168.861 193.972L168.894 193.939L168.949 193.885C169.301 193.563 169.646 193.235 169.992 192.9C170.419 192.485 170.85 192.059 171.269 191.633C171.578 191.33 171.854 191.044 172.134 190.752L172.758 190.085C173.045 189.781 173.31 189.499 173.56 189.213C174.129 188.585 174.68 187.956 175.216 187.327L176.111 186.251C176.279 186.048 176.44 185.846 176.601 185.645C176.889 185.283 177.173 184.922 177.459 184.55C177.744 184.178 178.036 183.788 178.322 183.396C178.513 183.135 178.699 182.88 178.884 182.619C179.106 182.308 179.325 182.004 179.538 181.692C180.006 181.015 180.476 180.308 180.976 179.526C181.253 179.094 181.524 178.66 181.789 178.222L181.803 178.2C182.017 177.844 182.231 177.481 182.44 177.116C182.755 176.581 183.048 176.056 183.336 175.526C183.576 175.081 183.813 174.635 184.044 174.18C184.044 174.174 184.068 174.132 184.071 174.125C184.28 173.724 184.484 173.322 184.676 172.916L184.786 172.695C184.984 172.282 185.192 171.839 185.392 171.389C185.613 170.913 185.819 170.444 186.016 169.982C186.218 169.505 186.413 169.036 186.595 168.561C186.793 168.07 186.975 167.599 187.145 167.122C187.315 166.645 187.474 166.223 187.621 165.784L187.786 165.294C187.881 165.008 187.976 164.721 188.066 164.429L188.132 164.218C188.184 164.052 188.237 163.884 188.284 163.716C188.294 163.678 188.306 163.641 188.319 163.604C188.333 163.566 188.35 163.505 188.364 163.456L188.661 162.423C188.759 162.066 188.861 161.688 188.957 161.312C190.896 147.392 186.048 131.275 175.301 115.915C165.523 101.939 151.659 89.5984 137.26 82.0575C133.938 80.3168 130.244 79.4075 126.493 79.4075C122.743 79.4075 119.049 80.3168 115.727 82.0575C101.328 89.5984 87.4626 101.939 77.6845 115.915C66.9387 131.275 62.0902 147.387 64.0284 161.31C64.1309 161.702 64.2333 162.088 64.3403 162.469C64.4169 162.761 64.4944 163.025 64.5773 163.295C64.621 163.454 64.6566 163.568 64.6905 163.677C64.7796 163.989 64.8687 164.277 64.9578 164.569C65.0745 164.935 65.1966 165.299 65.3143 165.658C65.4764 166.145 65.6475 166.625 65.824 167.098C66.0022 167.6 66.1857 168.072 66.3729 168.538C66.56 169.005 66.7418 169.458 66.9316 169.908L66.9423 169.933C66.9583 169.966 66.9744 170 66.9877 170.033C67.3388 170.873 67.7407 171.759 68.2148 172.74C68.2264 172.763 68.2371 172.787 68.2478 172.812C68.27 172.851 68.2914 172.892 68.311 172.933C68.5035 173.34 68.7067 173.749 68.9161 174.15C69.1317 174.57 69.3492 174.98 69.5648 175.39L69.5987 175.451C69.882 175.967 70.1645 176.482 70.4532 176.987C70.5994 177.237 70.758 177.504 70.9157 177.768L71.1216 178.115C71.4335 178.632 71.7587 179.148 72.0893 179.664C72.3076 180.013 72.5295 180.348 72.7505 180.678C73.1355 181.26 73.5445 181.855 74.0079 182.506C74.1959 182.774 74.3776 183.031 74.5666 183.279L74.6191 183.352L74.5951 183.325C74.6352 183.37 74.6726 183.414 74.7074 183.466C74.9221 183.766 75.1476 184.062 75.3721 184.357L75.5646 184.611C76.2525 185.502 77.002 186.432 77.7817 187.356C78.0401 187.66 78.3047 187.965 78.5703 188.265C78.9267 188.672 79.2653 189.055 79.6129 189.437C79.9604 189.82 80.3445 190.221 80.7161 190.617C81.0672 190.985 81.4289 191.357 81.7996 191.73C82.1908 192.127 82.5642 192.495 82.9438 192.857C83.3368 193.238 83.7191 193.603 84.1023 193.962C84.4854 194.321 84.8579 194.658 85.2384 195L85.2954 195.051C85.6893 195.407 86.0903 195.752 86.4958 196.101C86.9012 196.45 87.3076 196.797 87.7255 197.14C88.1434 197.482 88.5194 197.789 88.9017 198.097C88.9294 198.117 88.9561 198.137 88.9828 198.158C89.4088 198.497 89.835 198.829 90.2616 199.156C90.6492 199.451 91.052 199.752 91.4547 200.052C91.5385 200.109 91.6044 200.157 91.6695 200.208ZM168.902 193.948L168.889 193.959L168.902 193.948ZM67.0136 170.124C67.0136 170.124 67.0145 170.124 67.0136 170.124V170.124ZM66.9049 169.856V169.852V169.856Z" fill="#3D3144"/>
<path d="M176.461 170.684C176.352 171.019 176.232 171.357 176.105 171.706C172.799 180.176 166.315 184.694 162.389 179.582L164.731 168.073L166.325 160.249C172.454 156.064 180.622 157.944 176.461 170.684Z" fill="#FDBD91"/>
<path d="M166.32 181.951C164.761 181.951 163.357 181.187 162.221 179.711L162.162 179.635L166.134 160.123L166.206 160.074C169.55 157.789 173.314 157.393 175.57 159.087C177.041 160.19 179.135 163.172 176.661 170.75C176.551 171.086 176.431 171.427 176.305 171.777C174.095 177.441 170.451 181.412 167.019 181.9C166.788 181.933 166.554 181.95 166.32 181.951ZM162.621 179.528C163.813 181.043 165.31 181.714 166.964 181.479C170.246 181.011 173.758 177.145 175.911 171.628C176.032 171.288 176.151 170.951 176.26 170.618C178.033 165.188 177.698 161.214 175.318 159.427C173.222 157.853 169.694 158.237 166.519 160.377L162.621 179.528Z" fill="#000072"/>
<g opacity="0.3">
<path opacity="0.3" d="M176.461 170.684C176.352 171.019 176.232 171.357 176.105 171.706C172.799 180.176 166.315 184.694 162.389 179.582L164.731 168.073C165.28 168.03 165.61 168.006 165.61 168.006C167.99 175.458 171.449 176.12 175.986 169.992L176.461 170.684Z" fill="#000072"/>
</g>
<path d="M166.332 183.169C164.399 183.169 162.623 182.226 161.262 180.455C161.137 180.292 161.048 180.105 161.002 179.905C160.956 179.705 160.953 179.497 160.995 179.296L164.931 159.964C165.004 159.599 165.217 159.277 165.525 159.067C169.347 156.457 173.711 156.095 176.384 158.169C178.177 159.558 180.701 163.23 177.459 172.193C175.046 178.378 171.12 182.547 167.201 183.106C166.913 183.148 166.623 183.169 166.332 183.169ZM163.938 179.185C164.78 180.069 165.72 180.424 166.797 180.271C169.607 179.87 172.815 176.218 174.779 171.185C176.683 165.918 176.633 161.986 174.629 160.432C173.062 159.216 170.235 159.513 167.615 161.124L163.938 179.185Z" fill="#3D3144"/>
<path d="M76.5386 170.684C76.6482 171.019 76.7676 171.357 76.895 171.706C80.201 180.176 86.6847 184.694 90.6109 179.582L88.269 168.073L86.6677 160.249C80.5459 156.064 72.378 157.944 76.5386 170.684Z" fill="#FDBD91"/>
<path d="M86.6811 182.037C86.441 182.036 86.2013 182.018 85.9638 181.984C82.5027 181.491 78.835 177.499 76.6143 171.814C76.486 171.457 76.3666 171.113 76.2579 170.777C73.7628 163.149 75.8907 160.136 77.3789 159.02C79.6646 157.304 83.4678 157.699 86.8415 160.001L86.9413 160.068L90.929 179.652L90.8461 179.76C89.6975 181.26 88.2664 182.037 86.6811 182.037ZM76.8211 170.592C76.9298 170.923 77.0483 171.26 77.1713 171.606C79.3099 177.086 82.7959 180.932 86.0484 181.396C87.68 181.627 89.1049 180.993 90.2892 179.506L86.404 160.427C83.2664 158.324 79.792 157.947 77.7335 159.493C75.3837 161.257 75.0602 165.199 76.8211 170.591V170.592Z" fill="#000072"/>
<g opacity="0.55">
<path opacity="0.55" d="M85.3168 181.598C82.2871 180.586 79.1629 176.93 77.1784 171.846C77.0545 171.497 76.9351 171.159 76.8219 170.824C72.6614 158.085 80.8319 156.203 86.9547 160.393L86.9832 160.536C81.4441 158.44 75.8578 161.348 79.4453 172.341C79.555 172.674 79.6744 173.013 79.8018 173.362C81.2097 176.972 83.1987 179.866 85.3168 181.598Z" fill="white"/>
</g>
<path d="M86.6722 183.169C86.3815 183.169 86.0911 183.148 85.8033 183.106C81.8825 182.547 77.9616 178.381 75.5557 172.229C72.3005 163.233 74.825 159.561 76.6188 158.171C79.2921 156.097 83.6585 156.459 87.4759 159.07C87.7838 159.28 87.9975 159.602 88.0712 159.967L92.0143 179.296C92.0553 179.497 92.0527 179.705 92.0066 179.904C91.9604 180.104 91.8719 180.292 91.747 180.455C90.3809 182.227 88.605 183.169 86.6722 183.169ZM80.8577 159.686C79.8838 159.686 79.0221 159.93 78.3742 160.432C76.3701 161.986 76.3247 165.918 78.2379 171.22C80.1894 176.22 83.3965 179.868 86.207 180.273C87.2835 180.426 88.2227 180.071 89.0666 179.187L85.3881 161.126C83.8509 160.178 82.2416 159.686 80.8577 159.686Z" fill="#3D3144"/>
<path d="M165.465 168.364V174.98C165.465 186.36 160.021 197.152 150.646 203.599C150.513 203.688 150.379 203.777 150.251 203.867C143.25 208.555 135.016 211.059 126.592 211.059C118.169 211.06 109.934 208.558 102.933 203.871C102.804 203.782 102.671 203.693 102.537 203.599C93.1576 197.16 87.7139 186.367 87.7139 174.98V168.364C87.7139 168.364 87.7379 167.939 87.7852 167.176C88.1416 161.137 89.7367 134.044 89.9942 133.352C98.506 110.431 183.599 116.048 165.465 168.364Z" fill="#FDBD91"/>
<path d="M126.589 211.39C118.104 211.385 109.812 208.853 102.77 204.115C102.65 204.031 102.531 203.949 102.414 203.868C93.0106 197.414 87.4207 186.625 87.4207 174.982V168.366C87.4207 168.349 87.4457 167.92 87.4938 167.159C88.0757 157.199 89.4542 133.955 89.7215 133.25C91.9555 127.233 99.529 122.775 110.5 121.02C121.091 119.326 133.427 120.473 143.5 124.092C153.556 127.705 175.847 139.256 165.767 168.416V174.982C165.767 186.62 160.179 197.41 150.82 203.843L150.666 203.947C150.585 204 150.505 204.054 150.427 204.109C143.38 208.851 135.082 211.386 126.589 211.39ZM120.53 120.844C117.2 120.836 113.875 121.09 110.586 121.605C99.832 123.326 92.4269 127.645 90.2687 133.455C90.062 134.218 88.9588 152.108 88.0766 167.193C88.0293 167.956 88.0053 168.38 88.0053 168.381V174.979C88.0053 186.428 93.4989 197.034 102.7 203.35C102.86 203.459 102.982 203.542 103.099 203.624C117.366 213.188 135.809 213.186 150.079 203.616C150.157 203.562 150.241 203.505 150.326 203.448L150.474 203.349C159.671 197.028 165.162 186.422 165.162 174.979L165.178 168.265C175.125 139.571 153.183 128.204 143.287 124.649C136.348 122.155 128.314 120.844 120.53 120.844Z" fill="#000072"/>
<g opacity="0.3">
<path opacity="0.3" d="M165.465 168.364V174.98C165.465 186.36 160.021 197.152 150.646 203.599C150.513 203.688 150.379 203.777 150.251 203.866C143.25 208.555 135.016 211.059 126.592 211.059C118.169 211.06 109.934 208.558 102.933 203.871C102.804 203.782 102.671 203.693 102.537 203.599C102.242 203.394 101.946 203.184 101.654 202.969C108.336 206.215 115.752 207.654 123.163 207.141C130.573 206.629 137.72 204.183 143.893 200.048C144.022 199.959 144.16 199.87 144.289 199.78C153.663 193.336 159.107 182.544 159.107 171.161L159.672 162.822C165.827 145.07 159.527 134.421 148.935 126.713C163.346 133.824 172.76 147.314 165.465 168.364Z" fill="#000072"/>
</g>
<g opacity="0.3">
<path opacity="0.3" d="M165.465 168.364V171.052C161.188 164.751 160.365 147.557 160.365 147.557C156.627 151.618 135.637 156.3 120.907 148.47C120.113 148.048 119.24 148.893 119.639 149.7C119.818 150.063 119.892 150.185 119.892 150.185C117.954 151.386 108.829 150.216 103.878 147.332C102.501 146.53 100.744 147.398 100.498 148.974C99.3891 156.056 95.8639 160.985 88.3243 168.363C88.1389 167.966 87.9571 167.57 87.7896 167.174C88.1461 161.136 89.7411 134.042 89.9987 133.35C98.506 110.431 183.599 116.048 165.465 168.364Z" fill="#000072"/>
</g>
<g opacity="0.55">
<path opacity="0.55" d="M142.723 207.878C136.27 210.523 129.266 211.54 122.327 210.841C115.389 210.141 108.729 207.746 102.933 203.866C102.804 203.776 102.671 203.687 102.537 203.594C93.1576 197.155 87.7139 186.362 87.7139 174.974V168.359C87.7139 168.359 89.7037 134.123 89.9942 133.346C91.7835 128.532 96.9501 124.974 103.835 122.845C98.6584 125.008 94.8561 128.134 93.3724 132.124C93.081 132.907 91.092 167.137 91.092 167.137V173.758C91.092 185.142 96.5349 195.934 105.915 202.377C106.056 202.454 106.19 202.544 106.316 202.644C115.599 211.057 130.623 211.683 142.723 207.878Z" fill="white"/>
</g>
<path d="M126.589 212.527C117.878 212.522 109.366 209.922 102.138 205.058C102.001 204.968 101.864 204.872 101.726 204.779C92.0553 198.139 86.2819 186.999 86.2819 174.98V168.364C86.2819 168.337 86.2819 168.309 86.2819 168.282C88.2833 133.859 88.5595 133.095 88.6504 132.852C93.891 118.748 123.398 115.663 143.882 123.028C153.639 126.534 161.027 132.095 165.247 139.109C170.213 147.363 170.767 157.287 166.895 168.608V174.983C166.895 187 161.124 198.138 151.454 204.779L151.047 205.057C143.817 209.923 135.303 212.523 126.589 212.527ZM89.145 168.408V174.983C89.145 186.058 94.4542 196.315 103.347 202.42C103.475 202.51 103.602 202.594 103.731 202.68C117.62 211.993 135.567 211.992 149.451 202.68L149.834 202.421C158.726 196.313 164.033 186.058 164.033 174.985V168.37C164.033 168.21 164.06 168.051 164.113 167.9C173.728 140.165 152.491 129.166 142.914 125.729C122.156 118.27 95.7418 122.401 91.3754 133.753C91.1107 135.599 89.9042 155.354 89.145 168.408ZM91.3469 133.823C91.3469 133.832 91.3398 133.842 91.3371 133.85C91.3398 133.84 91.3424 133.832 91.3469 133.821V133.823Z" fill="#3D3144"/>
<path d="M165.016 119.318C175.751 133.042 174.415 156.923 165.373 169.438C158.455 165.619 157.997 147.557 157.997 147.557C141.623 152.015 125.054 149.295 110.031 136.345C109.711 141.433 113.971 146.152 113.971 146.152C112.203 146.114 110.449 145.843 108.752 145.345C103.316 143.718 100.083 139.78 98.1032 134.83C96.1945 152.014 96.0751 155.833 87.7121 168.363C79.3634 150.463 77.8271 128.386 91.7434 121.784C72.3406 115.097 79.497 101.574 96.1989 113.589C88.0079 101.813 98.3465 97.2729 100.493 110.247C112.569 88.1799 165.616 95.9267 172.805 120.987L165.038 119.321C165.031 119.319 165.024 119.318 165.016 119.318Z" fill="#AC3D50"/>
<path d="M165.461 169.826L165.231 169.699C158.72 166.105 157.821 150.638 157.714 147.945C140.321 152.57 124.379 148.882 110.312 136.979C110.359 141.648 114.154 145.914 114.194 145.958L114.66 146.475L113.965 146.454C112.171 146.414 110.39 146.139 108.667 145.636C103.968 144.228 100.558 141.07 98.2761 135.998L98.1719 136.936C96.4788 152.323 96.0181 156.461 87.9607 168.529L87.6676 168.968L87.4448 168.489C79.0354 150.46 77.6426 128.839 90.986 121.832C83.1443 118.985 80.0673 115.151 79.8125 112.463C79.6788 111.06 80.2812 109.899 81.5056 109.194C83.8055 107.874 88.5364 108.11 95.1136 112.48C92.3583 107.969 92.4403 104.704 93.4312 103.208C94.014 102.331 94.9283 101.952 95.9263 102.169C97.6007 102.525 99.6689 104.624 100.631 109.396C107.272 98.358 123.292 95.9169 136.265 97.3603C151.722 99.0793 169.101 107.027 173.083 120.907L173.22 121.384L165.734 119.779C176.15 133.874 174.342 157.525 165.61 169.617L165.461 169.826ZM158.286 147.171L158.295 147.55C158.301 147.728 158.817 165.08 165.29 169.045C173.896 156.877 175.518 133.226 164.783 119.501L164.407 119.021L165.133 119.042L172.374 120.593C168.207 107.273 151.284 99.6285 136.204 97.947C123.15 96.4955 106.982 99.0008 100.751 110.387L100.338 111.143L100.197 110.292C99.3606 105.239 97.3093 103.071 95.8069 102.746C95.0432 102.583 94.3811 102.861 93.9284 103.534C92.9482 105.013 93.0124 108.488 96.4405 113.416L97.4314 114.842L96.0243 113.832C89.0149 108.788 83.9819 108.459 81.8059 109.711C80.7936 110.293 80.291 111.251 80.406 112.408C80.6394 114.868 83.7752 118.726 91.8441 121.502L92.5339 121.74L91.8745 122.052C78.3297 128.479 79.5478 149.811 87.7629 167.754C95.4558 156.144 95.9183 151.952 97.582 136.869L97.9384 133.617L98.3786 134.719C100.583 140.229 104.004 143.612 108.836 145.061C110.292 145.489 111.794 145.745 113.31 145.825C112.209 144.441 109.467 140.542 109.733 136.324L109.77 135.727L110.223 136.117C124.344 148.289 140.39 152.042 157.918 147.268L158.286 147.171Z" fill="#000072"/>
<g opacity="0.3">
<path opacity="0.3" d="M96.1188 131.84C96.9134 133.344 97.5149 134.943 97.909 136.598C96.1776 152.298 95.7819 156.273 87.7139 168.364C86.7693 166.335 85.9103 164.259 85.1564 162.154C91.7809 151.873 92.5526 146.066 94.0862 132.214C94.2038 131.15 95.626 130.888 96.1188 131.84Z" fill="#000072"/>
</g>
<g opacity="0.55">
<path opacity="0.55" d="M93.0427 111.552C82.5375 107.094 78.7351 114.798 88.9685 120.707C74.1976 114.263 79.4649 103.77 93.0427 111.552Z" fill="white"/>
</g>
<g opacity="0.55">
<path opacity="0.55" d="M91.4111 121.958L91.4405 121.971C92.7638 122.556 93.0445 124.289 91.9297 125.215C82.4243 133.101 82.7861 150.843 89.0595 166.311C88.64 166.97 88.1915 167.656 87.7139 168.369C79.432 150.607 77.8529 128.745 91.4111 121.958Z" fill="white"/>
</g>
<g opacity="0.55">
<path opacity="0.55" d="M95.5431 113.399L95.511 113.381C89.9666 104.841 95.0111 99.9236 98.3795 103.862C96.5188 104.136 95.4139 107.015 97.4803 111.569C98.0284 112.775 96.7069 114.035 95.5431 113.399Z" fill="white"/>
</g>
<g opacity="0.55">
<path opacity="0.55" d="M162.273 108.101C153.132 103.881 140.887 101.058 129.778 101.008C128.066 104.297 122.293 104.134 119.865 101.795C113.615 102.917 108.322 105.285 105.024 109.232C104.08 110.364 102.234 110.287 101.489 109.012C101.445 108.943 101.406 108.869 101.375 108.793C111.726 95.5852 146.649 94.4975 162.273 108.101Z" fill="white"/>
</g>
<path d="M165.373 170.871C165.132 170.871 164.894 170.809 164.683 170.692C158.371 167.208 156.961 154.343 156.65 149.384C140.355 153.338 125.335 150.097 111.922 139.736C112.891 142.774 115.008 145.165 115.04 145.196C115.225 145.402 115.347 145.657 115.39 145.931C115.433 146.204 115.396 146.484 115.283 146.737C115.171 146.99 114.988 147.204 114.756 147.355C114.524 147.506 114.253 147.586 113.976 147.587H113.933C107.361 147.385 102.36 144.734 99.0122 139.68C97.4973 153.185 96.6392 157.577 88.908 169.161C88.767 169.373 88.5723 169.543 88.3441 169.654C88.1158 169.765 87.8621 169.813 87.6089 169.794C87.3558 169.775 87.1124 169.688 86.9036 169.544C86.6948 169.399 86.5282 169.202 86.4209 168.972C78.2156 151.381 76.633 130.402 88.4651 122.05C81.6981 119.108 78.949 115.332 78.6861 112.574C78.5079 110.728 79.3357 109.139 80.9477 108.213C83.1131 106.965 87.0963 106.876 92.4367 109.594C91.2578 106.385 91.5661 103.978 92.4929 102.582C93.3358 101.316 94.7135 100.747 96.1731 101.061C98.2752 101.513 100.019 103.563 101.098 106.731C108.666 97.0073 123.918 94.8479 136.398 96.2352C152.231 97.9951 170.055 106.211 174.181 120.595C174.249 120.833 174.255 121.085 174.197 121.325C174.14 121.566 174.021 121.787 173.852 121.968C173.683 122.149 173.47 122.283 173.235 122.357C172.999 122.431 172.748 122.443 172.506 122.391L168.247 121.477C172.122 127.836 174.162 135.99 174.046 144.852C173.917 154.584 171.181 163.851 166.538 170.279C166.405 170.463 166.23 170.613 166.028 170.716C165.825 170.819 165.601 170.872 165.373 170.871ZM157.998 146.125C158.371 146.125 158.73 146.271 158.997 146.532C159.264 146.792 159.419 147.147 159.429 147.521C159.544 151.97 160.786 163.532 165.019 167.421C172.817 155.332 174.049 133.19 163.89 120.2C163.709 119.969 163.603 119.687 163.588 119.394C163.573 119.1 163.648 118.809 163.804 118.559C163.959 118.31 164.188 118.115 164.458 118C164.729 117.885 165.028 117.857 165.316 117.918L170.597 119.051C165.637 107.377 150.055 100.634 136.077 99.0801C120.13 97.3077 106.655 101.962 101.744 110.938C101.601 111.199 101.38 111.409 101.112 111.539C100.844 111.668 100.542 111.711 100.249 111.661C99.9554 111.611 99.6848 111.471 99.4746 111.26C99.2645 111.049 99.1252 110.778 99.0763 110.484C98.2797 105.67 96.4324 104.048 95.5672 103.862C95.3542 103.816 95.1056 103.816 94.8712 104.168C94.2813 105.06 94.0452 107.995 97.3663 112.774C97.5597 113.051 97.6488 113.388 97.6178 113.724C97.5868 114.061 97.4377 114.376 97.197 114.613C96.9562 114.851 96.6393 114.995 96.3023 115.021C95.9654 115.047 95.6301 114.952 95.356 114.755C89.2074 110.329 84.3954 109.528 82.3646 110.697C81.7337 111.059 81.4601 111.589 81.5287 112.302C81.7462 114.593 85.1324 117.996 92.2068 120.433C92.4758 120.526 92.7111 120.696 92.8827 120.923C93.0542 121.15 93.1543 121.423 93.1701 121.708C93.1859 121.992 93.1166 122.274 92.9713 122.519C92.8259 122.763 92.6109 122.959 92.3539 123.081C84.8686 126.632 83.0303 134.726 82.8057 140.891C82.5384 148.202 84.4025 157.002 87.95 165.385C94.3989 155.325 94.857 151.182 96.4485 136.748L96.6784 134.674C96.7137 134.357 96.8539 134.061 97.0767 133.832C97.2995 133.604 97.5922 133.457 97.9082 133.414C98.2242 133.371 98.5455 133.435 98.821 133.596C99.0966 133.756 99.3106 134.004 99.4292 134.3C101.734 140.067 105.517 143.394 110.948 144.404C109.717 142.371 108.401 139.411 108.599 136.256C108.616 135.99 108.706 135.734 108.861 135.516C109.015 135.299 109.227 135.129 109.472 135.026C109.718 134.923 109.987 134.89 110.25 134.931C110.514 134.973 110.76 135.087 110.962 135.261C124.779 147.17 140.475 150.843 157.618 146.176C157.742 146.142 157.87 146.125 157.998 146.125Z" fill="#3D3144"/>
<path d="M157.997 148.99C157.65 148.989 157.316 148.862 157.056 148.633C156.795 148.403 156.627 148.088 156.582 147.744C156.537 147.4 156.618 147.051 156.81 146.763C157.002 146.474 157.293 146.265 157.627 146.174C159.404 145.696 161.201 145.121 162.974 144.467C163.33 144.335 163.724 144.35 164.068 144.509C164.413 144.668 164.681 144.957 164.813 145.313C164.945 145.669 164.93 146.063 164.771 146.408C164.612 146.754 164.323 147.021 163.967 147.153C162.118 147.838 160.236 148.439 158.375 148.936C158.252 148.971 158.125 148.989 157.997 148.99Z" fill="#3D3144"/>
<g opacity="0.3">
<path opacity="0.3" d="M165.374 169.438C158.457 165.619 157.999 147.557 157.999 147.557C141.625 152.015 125.056 149.295 110.032 136.345C109.713 141.433 113.973 146.152 113.973 146.152C112.205 146.114 110.45 145.843 108.754 145.345C100.92 132.429 104.255 129.386 115.519 133.355C146.777 143.445 169.534 145.026 165.016 119.316C175.751 133.042 174.416 156.923 165.374 169.438Z" fill="#3D3144"/>
</g>
<g opacity="0.2">
<path opacity="0.2" d="M157.438 131.252C157.438 133.422 153.194 135.18 147.957 135.18C142.72 135.18 138.476 133.422 138.476 131.252C138.476 129.082 142.721 129.023 147.957 129.023C153.193 129.023 157.438 129.083 157.438 131.252Z" fill="#FEFEFE"/>
</g>
<path d="M131.606 194.845C131.606 194.845 129.556 196.156 124.203 196.156C123.044 196.237 119.721 196.054 115.523 192.219C115.523 192.219 117.462 197.812 124.077 197.812C124.078 197.812 127.842 198.154 131.606 194.845Z" fill="#000072"/>
<path d="M101.229 169.993C101.675 168.533 102.754 167.319 104.081 166.49C105.439 165.664 107.003 165.238 108.592 165.259C110.174 165.27 111.722 165.715 113.068 166.546C114.38 167.369 115.457 168.551 115.959 169.993C114.519 169.499 113.293 169.102 112.082 168.849C110.925 168.596 109.747 168.461 108.563 168.444C107.386 168.429 106.21 168.544 105.058 168.788C103.857 169.032 102.645 169.441 101.229 169.993Z" fill="#3D3144"/>
<path d="M152.525 169.993C151.109 169.441 149.897 169.036 148.693 168.788C147.541 168.544 146.366 168.429 145.188 168.444C144.004 168.461 142.825 168.596 141.668 168.849C140.458 169.103 139.232 169.499 137.792 169.993C138.295 168.551 139.371 167.369 140.683 166.546C142.029 165.715 143.577 165.27 145.159 165.259C146.748 165.238 148.312 165.664 149.67 166.49C151 167.318 152.075 168.533 152.525 169.993Z" fill="#3D3144"/>
<path d="M110.032 185.211C112.75 185.211 114.953 182.303 114.953 178.716C114.953 175.13 112.75 172.222 110.032 172.222C107.315 172.222 105.112 175.13 105.112 178.716C105.112 182.303 107.315 185.211 110.032 185.211Z" fill="#3D3144"/>
<path d="M111.289 179.39C112.11 179.39 112.775 178.414 112.775 177.21C112.775 176.005 112.11 175.029 111.289 175.029C110.468 175.029 109.802 176.005 109.802 177.21C109.802 178.414 110.468 179.39 111.289 179.39Z" fill="white"/>
<path d="M111.289 179.688C110.288 179.688 109.507 178.6 109.507 177.211C109.507 175.821 110.29 174.732 111.289 174.732C112.288 174.732 113.071 175.821 113.071 177.211C113.071 178.6 112.29 179.688 111.289 179.688ZM111.289 175.328C110.645 175.328 110.099 176.19 110.099 177.211C110.099 178.231 110.645 179.094 111.289 179.094C111.933 179.094 112.478 178.23 112.478 177.211C112.478 176.191 111.934 175.328 111.289 175.328Z" fill="#000072"/>
<path d="M144.052 185.211C146.77 185.211 148.973 182.303 148.973 178.716C148.973 175.13 146.77 172.222 144.052 172.222C141.334 172.222 139.131 175.13 139.131 178.716C139.131 182.303 141.334 185.211 144.052 185.211Z" fill="#3D3144"/>
<path d="M142.796 179.39C143.616 179.39 144.282 178.414 144.282 177.21C144.282 176.005 143.616 175.029 142.796 175.029C141.975 175.029 141.309 176.005 141.309 177.21C141.309 178.414 141.975 179.39 142.796 179.39Z" fill="white"/>
<path d="M142.796 179.688C141.795 179.688 141.013 178.6 141.013 177.211C141.013 175.821 141.797 174.732 142.796 174.732C143.794 174.732 144.578 175.821 144.578 177.211C144.578 178.6 143.795 179.688 142.796 179.688ZM142.796 175.328C142.15 175.328 141.606 176.19 141.606 177.211C141.606 178.231 142.15 179.094 142.796 179.094C143.441 179.094 143.984 178.23 143.984 177.211C143.984 176.191 143.44 175.328 142.796 175.328Z" fill="#000072"/>
<path opacity="0.5" d="M185.029 297.791L70.7321 297.793L31.5753 151.098L223.805 152.774L185.029 297.791Z" fill="url(#paint0_linear_1_298)"/>
<path d="M198.44 294.255C197.699 297.921 195.713 301.217 192.819 303.584C189.926 305.952 186.302 307.244 182.565 307.242H73.1943C69.457 307.242 65.835 305.948 62.9419 303.581C60.0487 301.214 58.0623 297.92 57.3193 294.255H198.44Z" fill="#C6D3E3"/>
<path d="M182.565 307.54H73.1943C65.3811 307.54 58.5802 301.978 57.0279 294.315L56.9557 293.958H198.803L198.731 294.315C197.977 298.048 195.955 301.405 193.008 303.816C190.061 306.227 186.371 307.543 182.565 307.541V307.54ZM57.6873 294.553C59.3207 301.755 65.7838 306.946 73.1925 306.946H182.565C186.171 306.947 189.671 305.721 192.489 303.469C195.307 301.217 197.275 298.072 198.07 294.553H57.6873Z" fill="#000072"/>
<path d="M182.566 309.027H73.1951C64.6762 309.027 57.2658 302.965 55.5745 294.612C55.5216 294.352 55.527 294.085 55.5903 293.828C55.6536 293.571 55.7733 293.332 55.9406 293.127C56.1079 292.922 56.3186 292.757 56.5575 292.644C56.7964 292.53 57.0575 292.472 57.3219 292.472H198.44C198.705 292.472 198.966 292.53 199.205 292.643C199.444 292.757 199.655 292.922 199.822 293.126C199.99 293.331 200.11 293.571 200.173 293.828C200.236 294.085 200.242 294.352 200.189 294.612C198.501 302.965 191.085 309.027 182.566 309.027ZM59.6833 296.042C61.748 301.609 67.1214 305.457 73.1987 305.457H182.566C188.644 305.457 194.018 301.608 196.083 296.042H59.6833Z" fill="#3D3144"/>
<g opacity="0.3">
<path opacity="0.3" d="M198.44 294.255C197.699 297.921 195.713 301.217 192.819 303.584C189.926 305.952 186.302 307.244 182.565 307.242H114.916C126.034 306.716 135.889 303.647 144.371 297.792C144.371 297.792 144.955 296.365 146.249 294.254L198.44 294.255Z" fill="#3D3144"/>
</g>
<path d="M198.398 225.638L192.688 290.77C192.521 292.687 191.641 294.473 190.222 295.773C188.803 297.073 186.949 297.794 185.025 297.793H70.7322C68.8087 297.792 66.9553 297.071 65.5369 295.771C64.1185 294.471 63.2379 292.687 63.0687 290.77L57.3656 225.638C56.8025 219.242 61.8434 213.735 68.2567 213.735H187.5C189.018 213.734 190.519 214.05 191.908 214.661C193.297 215.272 194.544 216.166 195.569 217.286C196.594 218.405 197.375 219.726 197.862 221.164C198.349 222.602 198.531 224.126 198.398 225.638Z" fill="#C6D3E3"/>
<path d="M185.027 298.091H70.7322C68.7319 298.099 66.8019 297.353 65.327 296.001C63.8521 294.649 62.9407 292.791 62.7746 290.797L57.0716 225.664C56.935 224.111 57.1228 222.547 57.623 221.07C58.1232 219.594 58.9249 218.238 59.9771 217.088C61.0293 215.938 62.309 215.02 63.735 214.391C65.161 213.763 66.7021 213.438 68.2602 213.437H187.5C189.059 213.436 190.601 213.76 192.029 214.387C193.456 215.015 194.736 215.933 195.789 217.084C196.842 218.234 197.644 219.591 198.144 221.068C198.644 222.545 198.831 224.111 198.694 225.664L192.984 290.796C192.82 292.791 191.909 294.651 190.434 296.003C188.959 297.356 187.028 298.101 185.027 298.091ZM68.2593 214.033C66.7837 214.034 65.3243 214.341 63.9739 214.937C62.6234 215.532 61.4115 216.401 60.415 217.49C59.4185 218.579 58.6593 219.864 58.1856 221.262C57.7119 222.66 57.534 224.142 57.6632 225.613L63.3663 290.744C63.5199 292.59 64.3633 294.31 65.7284 295.561C67.0935 296.813 68.8799 297.503 70.7313 297.495H185.027C186.879 297.505 188.666 296.815 190.031 295.563C191.397 294.312 192.24 292.591 192.393 290.744L198.101 225.612C198.231 224.14 198.054 222.658 197.58 221.258C197.106 219.859 196.346 218.574 195.349 217.485C194.351 216.396 193.138 215.526 191.786 214.932C190.434 214.338 188.973 214.031 187.497 214.033H68.2593Z" fill="#000072"/>
<g opacity="0.75">
<path opacity="0.75" d="M196.576 218.568C195.135 217.895 193.563 217.548 191.973 217.552H72.7318C66.3159 217.552 61.2767 223.058 61.8398 229.455L67.5429 294.587C67.6288 295.573 67.906 296.533 68.3592 297.414C66.9233 296.948 65.6563 296.069 64.7159 294.888C63.7755 293.706 63.2033 292.274 63.0705 290.77L57.3674 225.638C56.8042 219.242 61.8452 213.735 68.2585 213.735H187.5C189.293 213.734 191.059 214.174 192.642 215.017C194.225 215.86 195.576 217.08 196.576 218.568Z" fill="white"/>
</g>
<path d="M185.029 299.576H70.733C68.3607 299.588 66.0713 298.704 64.3218 297.101C62.5724 295.497 61.4916 293.293 61.2953 290.928L55.5923 225.794C55.438 224.036 55.6511 222.265 56.2179 220.593C56.7847 218.922 57.6928 217.386 58.8846 216.085C60.0763 214.783 61.5257 213.744 63.1406 213.033C64.7554 212.322 66.5004 211.955 68.2646 211.955H187.501C189.266 211.955 191.011 212.322 192.626 213.032C194.241 213.743 195.69 214.783 196.882 216.084C198.074 217.386 198.982 218.921 199.549 220.593C200.116 222.265 200.329 224.036 200.175 225.794L194.467 290.928C194.271 293.293 193.19 295.498 191.441 297.101C189.691 298.704 187.402 299.588 185.029 299.576ZM68.2602 215.521C66.9907 215.521 65.7351 215.786 64.5731 216.297C63.4112 216.809 62.3684 217.557 61.5109 218.494C60.6533 219.43 59.9999 220.535 59.592 221.738C59.1841 222.941 59.0307 224.215 59.1415 225.481L64.8499 290.613C64.9718 292.088 65.645 293.462 66.7352 294.462C67.8254 295.461 69.2524 296.013 70.7312 296.006H185.029C186.508 296.013 187.935 295.462 189.026 294.462C190.116 293.462 190.789 292.088 190.911 290.613L196.619 225.481C196.73 224.215 196.576 222.941 196.169 221.738C195.761 220.535 195.107 219.43 194.249 218.493C193.392 217.557 192.349 216.809 191.187 216.297C190.025 215.785 188.769 215.521 187.5 215.521H68.2602Z" fill="#3D3144"/>
<g opacity="0.3">
<path opacity="0.3" d="M198.398 225.638L192.688 290.77C192.521 292.687 191.641 294.473 190.222 295.773C188.803 297.073 186.949 297.794 185.025 297.793H81.9244C145.366 292.8 184.618 267.154 193.184 215.336L193.204 215.341C194.942 216.403 196.349 217.93 197.267 219.75C198.185 221.569 198.576 223.608 198.398 225.638Z" fill="#000072"/>
</g>
<g opacity="0.3">
<path opacity="0.3" d="M86.1331 268.405L78.9731 269.075C78.0815 269.159 77.1933 268.884 76.504 268.313C75.8147 267.741 75.3806 266.918 75.2973 266.026L72.8369 239.733C72.7536 238.841 73.0278 237.953 73.5991 237.263C74.1705 236.573 74.9922 236.139 75.8836 236.056L83.0436 235.385C83.935 235.302 84.8231 235.576 85.5124 236.148C86.2017 236.719 86.6359 237.541 86.7194 238.433L89.1789 264.728C89.2622 265.62 88.9881 266.508 88.4169 267.198C87.8457 267.887 87.0242 268.321 86.1331 268.405Z" fill="white"/>
</g>
<path fill-rule="evenodd" clip-rule="evenodd" d="M137.772 270.163L136.463 271.213L136.307 274.533C136.265 275.424 135.467 276.126 134.524 276.101H134.52C133.579 276.076 132.839 275.338 132.868 274.444L132.912 273.04C132.913 272.973 132.9 272.907 132.875 272.845C132.85 272.784 132.812 272.727 132.765 272.68C132.718 272.632 132.662 272.595 132.601 272.569C132.539 272.543 132.473 272.53 132.406 272.53C132.271 272.524 132.139 272.571 132.039 272.662C131.939 272.753 131.878 272.879 131.872 273.014L131.832 274.419C131.808 275.31 131.03 276.009 130.088 275.985C129.148 275.96 128.395 275.223 128.409 274.33L128.423 273.157C128.42 272.959 128.34 272.77 128.199 272.63C128.058 272.491 127.868 272.412 127.67 272.412C127.573 272.407 127.476 272.421 127.385 272.454C127.293 272.487 127.21 272.538 127.138 272.604C127.067 272.67 127.009 272.749 126.969 272.838C126.929 272.926 126.907 273.022 126.905 273.119L126.897 274.292C126.892 275.184 126.128 275.882 125.192 275.857C124.256 275.833 123.492 275.095 123.484 274.204L123.471 272.802C123.466 272.666 123.409 272.538 123.311 272.443C123.213 272.348 123.083 272.294 122.947 272.293C122.881 272.289 122.816 272.299 122.754 272.322C122.692 272.345 122.635 272.379 122.587 272.425C122.539 272.47 122.501 272.524 122.475 272.585C122.449 272.645 122.435 272.71 122.435 272.776L122.454 274.178C122.466 275.069 121.718 275.767 120.784 275.742H120.777C119.843 275.718 119.067 274.98 119.041 274.091L118.952 270.781L117.678 269.674C116.025 268.235 114.677 266.48 113.712 264.512C112.747 262.545 112.185 260.404 112.059 258.215C111.554 249.074 118.653 241.231 127.961 241.377C137.317 241.524 144.383 249.669 143.697 258.877C143.535 261.063 142.927 263.193 141.908 265.135C140.89 267.076 139.484 268.788 137.778 270.163H137.772Z" fill="white"/>
<path d="M127.699 241.375H127.955C137.312 241.523 144.376 249.667 143.692 258.875C143.53 261.062 142.921 263.191 141.902 265.133C140.884 267.074 139.478 268.786 137.772 270.161L136.463 271.212L136.307 274.531C136.266 275.409 135.495 276.1 134.573 276.1H134.52C133.578 276.075 132.839 275.337 132.868 274.444L132.913 273.039C132.914 272.973 132.901 272.906 132.876 272.844C132.851 272.783 132.813 272.726 132.766 272.679C132.719 272.632 132.663 272.594 132.602 272.568C132.54 272.543 132.474 272.529 132.407 272.529H132.393C132.26 272.527 132.131 272.576 132.034 272.666C131.936 272.757 131.878 272.882 131.871 273.014L131.832 274.418C131.808 275.296 131.054 275.986 130.139 275.986H130.091C129.153 275.961 128.398 275.224 128.412 274.331L128.427 273.158C128.424 272.96 128.343 272.771 128.203 272.631C128.062 272.492 127.872 272.414 127.674 272.413H127.653C127.558 272.41 127.463 272.426 127.374 272.461C127.285 272.495 127.203 272.546 127.134 272.612C127.065 272.678 127.009 272.757 126.971 272.844C126.932 272.931 126.911 273.025 126.908 273.12L126.901 274.294C126.896 275.17 126.158 275.859 125.244 275.859H125.195C124.26 275.835 123.495 275.098 123.487 274.206L123.475 272.805C123.469 272.669 123.412 272.54 123.315 272.445C123.217 272.351 123.087 272.297 122.951 272.296H122.936C122.871 272.294 122.806 272.305 122.746 272.328C122.686 272.352 122.631 272.387 122.584 272.432C122.538 272.478 122.501 272.532 122.476 272.591C122.45 272.651 122.437 272.715 122.437 272.78L122.456 274.181C122.469 275.057 121.743 275.746 120.834 275.746H120.779C119.845 275.722 119.069 274.985 119.044 274.094L118.95 270.785L117.675 269.678C116.023 268.239 114.674 266.485 113.709 264.517C112.744 262.549 112.182 260.408 112.055 258.22C111.556 249.163 118.521 241.381 127.702 241.38L127.699 241.375ZM127.702 238.496C122.578 238.496 117.823 240.54 114.313 244.252C110.761 248.007 108.889 253.156 109.177 258.378C109.327 260.952 109.988 263.47 111.123 265.784C112.258 268.098 113.843 270.163 115.785 271.856L116.104 272.133L116.162 274.177C116.231 276.608 118.225 278.564 120.707 278.629C120.755 278.629 120.796 278.629 120.837 278.629C121.56 278.632 122.272 278.463 122.917 278.136C123.591 278.517 124.348 278.725 125.121 278.744H125.245C126.067 278.745 126.875 278.524 127.582 278.104C128.305 278.583 129.149 278.849 130.016 278.87H130.14C130.873 278.872 131.597 278.702 132.252 278.373C132.922 278.757 133.678 278.967 134.45 278.984C134.498 278.984 134.539 278.984 134.58 278.984C137.053 278.984 139.08 277.088 139.193 274.666L139.288 272.647L139.582 272.411C141.596 270.786 143.255 268.766 144.458 266.475C145.66 264.183 146.38 261.67 146.573 259.089C146.765 256.464 146.421 253.828 145.563 251.34C144.704 248.853 143.348 246.566 141.577 244.62C138.043 240.75 133.223 238.573 128.007 238.491H127.705L127.702 238.496Z" fill="#000072"/>
<path fill-rule="evenodd" clip-rule="evenodd" d="M121.655 254.444C119.18 254.431 117.274 256.456 117.396 258.934C117.515 261.359 119.552 263.309 121.949 263.327C122.518 263.334 123.082 263.227 123.608 263.011C124.135 262.795 124.612 262.474 125.011 262.069C125.411 261.664 125.724 261.183 125.933 260.653C126.142 260.124 126.242 259.558 126.226 258.989C126.184 256.506 124.136 254.456 121.658 254.442L121.655 254.444Z" fill="#000072"/>
<path fill-rule="evenodd" clip-rule="evenodd" d="M134.012 254.318C132.813 254.315 131.663 254.788 130.812 255.633C129.961 256.477 129.48 257.625 129.474 258.824C129.47 259.4 129.579 259.97 129.796 260.504C130.012 261.037 130.332 261.522 130.736 261.931C131.14 262.341 131.621 262.667 132.151 262.89C132.682 263.113 133.251 263.23 133.826 263.233C134.999 263.237 136.128 262.785 136.975 261.973C137.823 261.162 138.323 260.053 138.37 258.88C138.396 258.291 138.302 257.703 138.094 257.152C137.887 256.6 137.57 256.096 137.163 255.67C136.755 255.244 136.266 254.904 135.725 254.672C135.183 254.44 134.6 254.319 134.011 254.318H134.012Z" fill="#000072"/>
</g>
<defs>
<linearGradient id="paint0_linear_1_298" x1="127.691" y1="151.765" x2="126.674" y2="298.182" gradientUnits="userSpaceOnUse">
<stop stop-color="white"/>
<stop offset="1" stop-color="#40E6FF"/>
</linearGradient>
<clipPath id="clip0_1_298">
<rect width="253" height="320" fill="white" transform="translate(0 0.330566)"/>
</clipPath>
</defs>
</svg>
