<svg width="45" height="46" viewBox="0 0 45 46" fill="none" xmlns="http://www.w3.org/2000/svg">
<path d="M44.1488 20.9946L24.5004 1.34894C24.2313 1.07978 23.9119 0.866265 23.5604 0.720591C23.2088 0.574918 22.832 0.499939 22.4514 0.499939C22.0709 0.499939 21.6941 0.574918 21.3425 0.720591C20.9909 0.866265 20.6715 1.07978 20.4025 1.34894L16.3243 5.42713L21.4994 10.6022C22.1097 10.3938 22.7663 10.3612 23.3943 10.5081C24.0223 10.655 24.5963 10.9755 25.0509 11.433C25.5054 11.8905 25.8222 12.4666 25.9651 13.0955C26.108 13.7244 26.0711 14.3808 25.8588 14.9898L30.8455 19.9793C31.5833 19.7195 32.3875 19.7187 33.1258 19.977C33.864 20.2353 34.4923 20.7374 34.9072 21.4004C35.3221 22.0635 35.4988 22.8481 35.4082 23.625C35.3177 24.4019 34.9652 25.1248 34.409 25.6747C33.8459 26.2412 33.1035 26.5947 32.3087 26.6748C31.5139 26.7548 30.716 26.5564 30.0513 26.1134C29.3865 25.6705 28.8962 25.0105 28.664 24.2461C28.4318 23.4818 28.4722 22.6606 28.7783 21.9227L24.1291 17.2708V29.5138C24.8358 29.8636 25.4012 30.445 25.7312 31.1612C26.0611 31.8774 26.1357 32.685 25.9424 33.4494C25.7491 34.2139 25.2996 34.889 24.6689 35.3622C24.0382 35.8355 23.2644 36.0782 22.4763 36.0501C21.6883 36.022 20.9338 35.7246 20.3384 35.2076C19.7431 34.6905 19.3429 33.9851 19.2047 33.2088C19.0664 32.4325 19.1984 31.6323 19.5786 30.9415C19.9588 30.2507 20.5642 29.7111 21.2941 29.4126V17.057C20.873 16.8845 20.4902 16.6303 20.1679 16.3092C19.8455 15.988 19.5899 15.6062 19.4157 15.1858C19.2416 14.7654 19.1524 14.3146 19.1533 13.8596C19.1542 13.4046 19.2451 12.9542 19.4209 12.5344L14.3218 7.43248L0.849645 20.9046C0.580489 21.1736 0.366975 21.493 0.221301 21.8446C0.0756272 22.1962 0.000648499 22.573 0.000648499 22.9535C0.000648499 23.3341 0.0756272 23.7109 0.221301 24.0625C0.366975 24.414 0.580489 24.7335 0.849645 25.0025L20.4981 44.6509C20.7671 44.9201 21.0866 45.1336 21.4381 45.2793C21.7897 45.425 22.1665 45.4999 22.5471 45.4999C22.9276 45.4999 23.3044 45.425 23.656 45.2793C24.0076 45.1336 24.327 44.9201 24.596 44.6509L44.1517 25.0953C44.6946 24.5516 44.9995 23.8147 44.9995 23.0463C44.9995 22.278 44.6946 21.5411 44.1517 20.9974" fill="#404040"/>
</svg>
