<svg width="21" height="21" viewBox="0 0 21 21" fill="none" xmlns="http://www.w3.org/2000/svg">
<path fill-rule="evenodd" clip-rule="evenodd" d="M10.5 0.0598145C4.69875 0.0598145 0 4.648 0 10.3128C0 14.8497 3.00563 18.6817 7.17937 20.0402C7.70437 20.1299 7.90125 19.8224 7.90125 19.5532C7.90125 19.3097 7.88813 18.5023 7.88813 17.6436C5.25 18.1178 4.5675 17.0156 4.3575 16.4389C4.23938 16.1441 3.7275 15.2342 3.28125 14.9907C2.91375 14.7984 2.38875 14.3242 3.26812 14.3114C4.095 14.2986 4.68563 15.0547 4.8825 15.3623C5.8275 16.9131 7.33687 16.4773 7.94062 16.2082C8.0325 15.5417 8.30813 15.0932 8.61 14.8369C6.27375 14.5805 3.8325 13.6962 3.8325 9.77447C3.8325 8.65947 4.23938 7.7367 4.90875 7.019C4.80375 6.76267 4.43625 5.71175 5.01375 4.30197C5.01375 4.30197 5.89312 4.03283 7.90125 5.35289C8.74125 5.1222 9.63375 5.00686 10.5262 5.00686C11.4187 5.00686 12.3112 5.1222 13.1512 5.35289C15.1594 4.02001 16.0387 4.30197 16.0387 4.30197C16.6162 5.71175 16.2488 6.76267 16.1438 7.019C16.8131 7.7367 17.22 8.64665 17.22 9.77447C17.22 13.709 14.7656 14.5805 12.4294 14.8369C12.81 15.1573 13.1381 15.7724 13.1381 16.7337C13.1381 18.105 13.125 19.2072 13.125 19.5532C13.125 19.8224 13.3219 20.1428 13.8469 20.0402C15.9313 19.353 17.7425 18.0449 19.0257 16.2999C20.3089 14.5549 20.9994 12.461 21 10.3128C21 4.648 16.3013 0.0598145 10.5 0.0598145Z" fill="white"/>
</svg>
