<svg width="19" height="18" viewBox="0 0 19 18" fill="none" xmlns="http://www.w3.org/2000/svg">
<path d="M9.29775 12.8322C11.5042 12.8322 13.293 11.2155 13.293 9.2211C13.293 7.22673 11.5042 5.60999 9.29775 5.60999C7.09125 5.60999 5.30254 7.22673 5.30254 9.2211C5.30254 11.2155 7.09125 12.8322 9.29775 12.8322Z" stroke="#404040" stroke-width="1.5" stroke-linecap="round" stroke-linejoin="round"/>
<path d="M9.29775 1.72095V2.83206M2.84395 15.0543L3.45859 14.4987L2.84395 15.0543ZM15.1369 14.4987L15.7516 15.0543L15.1369 14.4987ZM15.1369 3.94317L15.7516 3.38761L15.1369 3.94317ZM3.45859 3.94317L2.84395 3.38761L3.45859 3.94317ZM2.2293 9.22095H1H2.2293ZM17.5955 9.22095H16.3662H17.5955ZM9.29775 15.6098V16.7209V15.6098Z" stroke="#404040" stroke-width="1.5" stroke-linecap="round" stroke-linejoin="round"/>
</svg>
