<svg width="61" height="46" viewBox="0 0 61 46" fill="none" xmlns="http://www.w3.org/2000/svg">
<path d="M52.36 26.3688C50.2667 26.3796 48.4472 26.8838 46.9239 27.6291C46.3647 26.5221 45.8058 25.5358 45.7073 24.8124C45.5975 23.9686 45.4661 23.4534 45.5975 22.445C45.7291 21.4367 46.321 20.0008 46.3099 19.8913C46.2991 19.7817 46.1783 19.2665 44.9728 19.2557C43.7672 19.2447 42.726 19.4858 42.6054 19.8036C42.4848 20.1214 42.2547 20.8448 42.1013 21.5899C41.893 22.6862 39.6902 26.5987 38.4299 28.6483C38.0242 27.8484 37.6735 27.1468 37.5967 26.5879C37.4871 25.7441 37.3555 25.2289 37.4871 24.2205C37.6187 23.2122 38.2106 21.7766 38.1995 21.6668C38.1885 21.5573 38.0679 21.042 36.8624 21.0312C35.6566 21.0202 34.6154 21.2613 34.495 21.5791C34.3745 21.8971 34.2428 22.6422 33.9909 23.3657C33.7387 24.0891 30.8124 30.6215 30.0452 32.3091C29.7352 32.9921 29.4099 33.6682 29.0698 34.3368C29.0698 34.3368 29.0587 34.3697 29.0258 34.4245C28.9189 34.6341 28.8094 34.8424 28.6972 35.0492V35.06C28.5327 35.3562 28.3573 35.63 28.2697 35.63C28.2039 35.63 28.0833 34.841 28.2915 33.7668C28.7299 31.4982 29.7711 27.969 29.7603 27.8484C29.7603 27.7826 29.9575 27.1689 29.0808 26.8509C28.2257 26.5331 27.919 27.0592 27.8421 27.0592C27.7655 27.0592 27.7105 27.2455 27.7105 27.2455C27.7105 27.2455 28.6643 23.278 25.8913 23.278C24.1597 23.278 21.7703 25.1741 20.5866 26.8838C19.241 27.6161 17.8965 28.3504 16.5532 29.0869C15.9069 29.4486 15.2382 29.8103 14.6134 30.15C14.5695 30.1063 14.5258 30.0513 14.4818 30.0075C11.128 26.4236 4.92472 23.8917 5.18773 19.0804C5.28645 17.3267 5.8891 12.7234 17.1014 7.13384C26.3296 2.58528 33.6731 3.84558 34.9444 6.64048C36.7637 10.6301 31.0098 18.0391 21.4743 19.113C17.8356 19.5187 15.9285 18.1158 15.4464 17.5897C14.9423 17.0416 14.8654 17.0087 14.679 17.1185C14.3723 17.283 14.5695 17.7761 14.679 18.061C14.9641 18.8061 16.1367 20.1214 18.1205 20.7682C19.8742 21.338 24.1376 21.656 29.2999 19.6612C35.0758 17.4252 39.5915 11.2109 38.2654 6.00492C36.939 0.722093 28.171 -1.02052 19.8742 1.92763C14.9423 3.68152 9.59362 6.44328 5.74667 10.0383C1.17625 14.3125 0.45279 18.0281 0.748709 19.5845C1.81204 25.1083 9.42932 28.7033 12.4762 31.3665C12.3227 31.4542 12.18 31.5311 12.0597 31.5969C10.5361 32.353 4.72728 35.3888 3.28059 38.6002C1.6367 42.2389 3.54384 44.8477 4.80414 45.1981C8.71691 46.2833 12.7392 44.3325 14.8983 41.11C17.0574 37.8878 16.7944 33.701 15.7971 31.783C15.7861 31.7612 15.7753 31.7391 15.7532 31.7172C16.1478 31.4871 16.5532 31.246 16.9479 31.0159C17.6732 30.5871 18.4077 30.1741 19.1509 29.7772C18.7782 30.7966 18.5041 32.0132 18.3727 33.7668C18.2082 35.8274 19.052 38.5015 20.159 39.5536C20.6524 40.0143 21.2332 40.0251 21.606 40.0251C22.8992 40.0251 23.4802 38.9509 24.1268 37.6796C24.9158 36.1234 25.6283 34.3149 25.6283 34.3149C25.6283 34.3149 24.7405 39.2031 27.1518 39.2031C28.0285 39.2031 28.9163 38.0632 29.3109 37.4824V37.4932C29.3109 37.4932 29.3328 37.4603 29.3767 37.3837C29.4644 37.2412 29.5192 37.1533 29.5192 37.1533V37.1317C29.8698 36.5178 30.6591 35.1258 31.8318 32.8132C33.3443 29.8322 34.802 26.1058 34.802 26.1058C34.802 26.1058 34.9336 27.0154 35.3828 28.5279C35.646 29.4157 36.1937 30.3911 36.6323 31.3336C36.2816 31.827 36.0623 32.1008 36.0623 32.1008L36.0733 32.1119C35.7882 32.4844 35.4815 32.8899 35.1416 33.2847C33.9469 34.7093 32.5223 36.3426 32.3249 36.8137C32.0945 37.3726 32.1495 37.7783 32.5881 38.1071C32.9059 38.3483 33.4756 38.3809 34.0567 38.3483C35.1308 38.2714 35.887 38.0084 36.2595 37.8441C36.8405 37.6359 37.52 37.3178 38.1556 36.8466C39.3285 35.9807 40.0406 34.7422 39.9751 33.1094C39.9422 32.2106 39.6462 31.3118 39.2845 30.4677C39.3943 30.3145 39.4927 30.161 39.6025 30.0075C41.4547 27.3003 42.8905 24.3301 42.8905 24.3301C42.8905 24.3301 43.0222 25.2397 43.4713 26.7524C43.6906 27.5196 44.14 28.3526 44.5344 29.1635C42.7918 30.5775 41.7177 32.2214 41.3341 33.2955C40.6438 35.2904 41.1806 36.1889 42.2 36.3972C42.6602 36.4959 43.3178 36.2766 43.8001 36.0684C44.4138 35.8712 45.1373 35.5315 45.8279 35.0271C47.0007 34.1614 48.1294 32.9557 48.0636 31.3228C48.0307 30.5775 47.8335 29.843 47.5594 29.1306C49.039 28.5171 50.9462 28.1772 53.3791 28.4621C58.5963 29.0758 59.6265 32.3309 59.4291 33.7012C59.2319 35.0711 58.1359 35.8164 57.7744 36.0465C57.4124 36.2768 57.2921 36.3535 57.325 36.5178C57.3687 36.7589 57.5441 36.7481 57.851 36.7041C58.2786 36.6275 60.5912 35.5971 60.6896 33.0763C60.8542 29.854 57.7852 26.3359 52.36 26.3688ZM12.1145 39.9374C10.3827 41.8224 7.97158 42.5349 6.93034 41.9322C5.81248 41.2854 6.25083 38.5015 8.37703 36.5069C9.67024 35.2904 11.3362 34.1612 12.4433 33.4709C12.6952 33.3174 13.068 33.0984 13.5174 32.8243C13.5941 32.7803 13.638 32.7585 13.638 32.7585L13.901 32.5939C14.679 35.4436 13.9339 37.9536 12.1145 39.9374ZM24.7186 31.3665C24.1158 32.8353 22.8555 36.5946 22.0883 36.3864C21.4306 36.211 21.0249 33.3614 21.9566 30.5446C22.4279 29.1306 23.4252 27.4427 24.0062 26.7853C24.9487 25.733 25.99 25.3821 26.242 25.8099C26.56 26.3688 25.0912 30.4459 24.7186 31.3665ZM35.1198 36.3424C34.8676 36.474 34.6267 36.5617 34.5169 36.4959C34.4403 36.4519 34.6266 36.2766 34.6266 36.2766C34.6266 36.2766 35.9309 34.8739 36.4459 34.2381C36.742 33.8655 37.0925 33.4272 37.4653 32.9338V33.0763C37.4653 34.7533 35.843 35.8822 35.1195 36.3424H35.1198ZM43.1425 34.5121C42.9561 34.3805 42.989 33.9422 43.6138 32.5721C43.8549 32.035 44.4247 31.1364 45.4003 30.2705C45.5099 30.6212 45.5867 30.9611 45.5757 31.2789C45.5646 33.3943 44.0523 34.1833 43.1425 34.5121Z" fill="#404040"/>
</svg>
