<svg width="21" height="21" viewBox="0 0 21 21" fill="none" xmlns="http://www.w3.org/2000/svg">
<path d="M7.11111 11.5968H4.47778C4.20938 10.5771 4.20938 9.50538 4.47778 8.48571H7.11111C7.0426 9.00149 7.0055 9.52097 7 10.0413C7.0055 10.5616 7.0426 11.081 7.11111 11.5968ZM5.12222 6.93015H7.38889C7.6481 5.97039 8.01331 5.04246 8.47778 4.16348C7.06039 4.6476 5.86763 5.63102 5.12222 6.93015ZM15.8778 6.93015C15.1265 5.6316 13.9306 4.64885 12.5111 4.16348C12.982 5.03824 13.3439 5.96738 13.5889 6.93015H15.8778ZM10.5 16.2301C11.1603 15.292 11.6631 14.2524 11.9889 13.1524H9.01111C9.33685 14.2524 9.83975 15.292 10.5 16.2301ZM10.5 3.84126C9.83918 4.78316 9.33629 5.82647 9.01111 6.93015H11.9889C11.6637 5.82647 11.1608 4.78316 10.5 3.84126ZM5.12222 13.1524C5.87231 14.4475 7.06338 15.4296 8.47778 15.919C8.01331 15.0401 7.6481 14.1121 7.38889 13.1524H5.12222ZM20.5 2.26348V17.819C20.5 18.4084 20.2659 18.9736 19.8491 19.3904C19.4324 19.8071 18.8671 20.0413 18.2778 20.0413H2.72222C2.13285 20.0413 1.56762 19.8071 1.15087 19.3904C0.734126 18.9736 0.5 18.4084 0.5 17.819V2.26348C0.5 1.67411 0.734126 1.10888 1.15087 0.692133C1.56762 0.275386 2.13285 0.0412598 2.72222 0.0412598H18.2778C18.8671 0.0412598 19.4324 0.275386 19.8491 0.692133C20.2659 1.10888 20.5 1.67411 20.5 2.26348ZM18.2778 10.0413C18.2778 8.50296 17.8216 6.99921 16.967 5.72016C16.1124 4.44111 14.8976 3.44421 13.4764 2.85553C12.0552 2.26685 10.4914 2.11282 8.98263 2.41293C7.47389 2.71304 6.08802 3.4538 5.00028 4.54154C3.91254 5.62928 3.17178 7.01515 2.87167 8.52389C2.57156 10.0326 2.72559 11.5965 3.31427 13.0177C3.90295 14.4389 4.89985 15.6536 6.1789 16.5082C7.45795 17.3629 8.9617 17.819 10.5 17.819C12.5628 17.819 14.5411 16.9996 15.9997 15.541C17.4583 14.0824 18.2778 12.1041 18.2778 10.0413ZM14 10.0413C13.9945 10.5616 13.9574 11.081 13.8889 11.5968H16.5222C16.7906 10.5771 16.7906 9.50538 16.5222 8.48571H13.8889C13.9574 9.00149 13.9945 9.52097 14 10.0413ZM12.5111 15.919C13.9291 15.431 15.1242 14.4489 15.8778 13.1524H13.5889C13.3439 14.1151 12.982 15.0443 12.5111 15.919ZM8.67778 8.48571C8.51193 9.51611 8.51193 10.5664 8.67778 11.5968H12.3222C12.3983 11.0817 12.4391 10.562 12.4444 10.0413C12.4395 9.52055 12.3986 9.0008 12.3222 8.48571H8.67778Z" fill="white"/>
</svg>
